<?xml version="1.0" encoding="UTF-8" standalone="no"?>
<!-- Created with Inkscape (http://www.inkscape.org/) -->

<svg
   width="100"
   height="100"
   viewBox="0 0 26.458333 26.458331"
   version="1.1"
   id="svg868"
   inkscape:version="1.2.2 (1:1.2.2+202212051552+b0a8486541)"
   sodipodi:docname="kwyg-logo-background.svg"
   xmlns:inkscape="http://www.inkscape.org/namespaces/inkscape"
   xmlns:sodipodi="http://sodipodi.sourceforge.net/DTD/sodipodi-0.dtd"
   xmlns="http://www.w3.org/2000/svg"
   xmlns:svg="http://www.w3.org/2000/svg">
  <sodipodi:namedview
     id="namedview870"
     pagecolor="#696969"
     bordercolor="#666666"
     borderopacity="1.0"
     inkscape:pageshadow="2"
     inkscape:pageopacity="0"
     inkscape:pagecheckerboard="0"
     inkscape:document-units="px"
     showgrid="false"
     fit-margin-top="0"
     fit-margin-left="0"
     fit-margin-right="0"
     fit-margin-bottom="0"
     inkscape:zoom="3.762919"
     inkscape:cx="66.304909"
     inkscape:cy="53.415978"
     inkscape:window-width="1920"
     inkscape:window-height="1011"
     inkscape:window-x="1290"
     inkscape:window-y="32"
     inkscape:window-maximized="1"
     inkscape:current-layer="layer1"
     units="px"
     inkscape:showpageshadow="2"
     inkscape:deskcolor="#696969" />
  <defs
     id="defs865" />
  <g
     inkscape:label="Layer 1"
     inkscape:groupmode="layer"
     id="layer1"
     transform="translate(-73.823692,-104.78281)">
    <rect
       style="fill:#222222;fill-opacity:1;stroke:none;stroke-width:0.264583;stroke-linecap:round;stroke-linejoin:round"
       id="rect844"
       width="26.458332"
       height="26.458332"
       x="73.823692"
       y="104.78281"
       rx="5.291667"
       ry="5.291667" />
    <path
       d="m 82.340345,122.36552 c -0.06841,-0.076 -0.185863,-0.0828 -0.26244,-0.0149 -0.07658,0.0681 -0.08327,0.18502 -0.01486,0.26164 0.175647,0.19597 0.362815,0.37522 0.556115,0.53331 0.03472,0.0279 0.07621,0.0419 0.117653,0.0419 0.05389,0 0.107251,-0.023 0.143862,-0.0675 0.06527,-0.0794 0.05333,-0.19614 -0.02604,-0.26053 -0.178432,-0.14623 -0.351475,-0.31176 -0.514295,-0.49398 z m 4.123847,0.86512 c -0.22471,0.0987 -0.452399,0.18502 -0.676185,0.25702 -0.09758,0.0316 -0.151293,0.13564 -0.12007,0.23324 0.02549,0.0787 0.09833,0.12823 0.176945,0.12823 0.01896,0 0.03812,-0.003 0.05708,-0.009 0.23605,-0.0755 0.475635,-0.16664 0.712088,-0.27073 0.09386,-0.0412 0.136425,-0.1505 0.09516,-0.24383 -0.04125,-0.0933 -0.150738,-0.13621 -0.244974,-0.0948 z m 9.824371,3.53635 -2.488558,-6.43483 c -0.0368,-0.0954 -0.111702,-0.17128 -0.206314,-0.20969 L 89.890125,118.617 c -0.08419,-0.0343 -0.177869,-0.0364 -0.263558,-0.006 l -0.135493,0.0477 c 1.099798,-1.71021 2.353626,-4.02028 2.353626,-5.66864 -1.8e-4,-2.33738 -1.908137,-4.23888 -4.254334,-4.23888 -2.345988,0 -4.254473,1.9015 -4.254473,4.23867 0,2.01971 1.896749,5.03121 3.081688,6.71597 l -3.60065,-1.21456 c -0.135493,-0.0456 -0.286418,-0.01 -0.386231,0.0932 l -4.533503,4.66402 c -0.07974,0.0818 -0.117098,0.19614 -0.101112,0.3088 0.01583,0.11299 0.0829,0.21263 0.181959,0.26943 l 5.890735,3.39137 h 5.48e-4 l 0.0049,0.004 c 0.0042,0.002 0.0082,0.003 0.01208,0.005 0.01639,0.009 0.0325,0.0174 0.05035,0.0239 0.0049,0.002 0.0097,0.002 0.01431,0.004 0.0062,0.002 0.01299,0.004 0.01972,0.005 0.0225,0.005 0.045,0.009 0.06743,0.0108 0.0042,1.8e-4 0.0091,0.002 0.01354,0.002 h 0.0082 c 0.0074,0 0.01452,-0.003 0.02194,-0.003 0.02528,-0.002 0.05021,-0.005 0.07491,-0.0116 0.01208,-0.003 0.02341,-0.008 0.03514,-0.0119 0.01076,-0.004 0.02208,-0.006 0.03271,-0.0115 l 5.161006,-2.54239 c 0.03458,0.0122 0.07081,0.0209 0.109286,0.0225 h 0.01431 c 0.02902,0 0.05723,-0.004 0.0842,-0.0109 l 6.2065,2.54074 c 0.04535,0.0189 0.09368,0.0277 0.141257,0.0277 0.09536,0 0.189217,-0.0364 0.259662,-0.10559 0.106875,-0.10337 0.14107,-0.25979 0.08754,-0.39785 z M 86.69961,116.75616 c 0,-0.50456 0.418205,-0.93078 0.914312,-0.93078 0.506677,0 0.934173,0.42624 0.934173,0.93078 0,0.49433 -0.427864,0.91185 -0.934173,0.91185 -0.496079,0 -0.914312,-0.41753 -0.914312,-0.91185 z m -0.876742,-4.96444 c -0.07769,-0.0681 -0.06806,-0.18409 0,-0.25201 0,0 0.72063,-0.85361 1.976333,-0.85361 1.030979,0 1.98543,0.7178 1.98543,1.69696 0,1.27945 -1.459801,1.31828 -1.459801,2.36561 0,0.10689 -0.08792,0.18445 -0.185307,0.18445 h -1.041258 c -0.09758,0 -0.18457,-0.0774 -0.18457,-0.18445 v -0.40677 c 0,-0.8152 1.343481,-1.1735 1.343481,-1.79382 0,-0.30099 -0.311891,-0.57227 -0.730282,-0.57227 -0.681387,0 -0.866117,0.61124 -1.109591,0.39784 z m -2.031125,12.03254 c 0.242557,0.0894 0.496081,0.1555 0.753686,0.19503 0.0097,0.002 0.01917,0.002 0.02847,0.002 0.05056,0 0.09647,-0.0219 0.130481,-0.0564 l -0.845353,2.39138 -5.096285,-2.93412 2.297516,-2.36373 c 0.05375,0.11988 0.128994,0.27724 0.230474,0.4602 0.03403,0.0613 0.09721,0.0958 0.16282,0.0958 0.03027,0 0.06118,-0.008 0.08959,-0.023 0.08977,-0.0496 0.122487,-0.16218 0.07286,-0.25163 -0.143306,-0.25887 -0.232897,-0.46559 -0.275085,-0.56968 l 1.460148,-1.50249 3.183911,1.07401 -1.229731,3.47894 c -0.0073,-0.0829 -0.06695,-0.15421 -0.153341,-0.16739 -0.23271,-0.0354 -0.461698,-0.0952 -0.681019,-0.17609 -0.09572,-0.0353 -0.203154,0.0134 -0.238841,0.10948 -0.03569,0.0955 0.0134,0.20208 0.10966,0.23751 z m 5.455176,-2.33607 c -0.07025,0.0596 -0.08885,0.162 -0.03625,0.24067 0.0076,0.0115 0.01674,0.0209 0.02618,0.0301 l -0.08476,2.22029 -4.436627,2.18575 2.037305,-5.76327 0.133077,-0.0466 c 0.253898,0.34366 0.425267,0.56133 0.456864,0.6016 0.06396,0.0807 0.161522,0.12768 0.264676,0.12768 h 6.94e-4 c 0.103716,0 0.201113,-0.0477 0.264864,-0.12862 0.04868,-0.0619 0.427308,-0.54758 0.931742,-1.27224 l 0.518753,-0.18166 z m 0.647373,2.53589 0.09461,-2.47564 c 0.03014,-0.007 0.06021,-0.0139 0.0907,-0.0197 0.100924,-0.0189 0.166904,-0.11561 0.148133,-0.216 -0.0193,-0.10077 -0.11598,-0.16607 -0.217092,-0.1479 -0.0028,0 -0.0049,0.002 -0.0073,0.002 l 0.0641,-1.67748 3.096548,1.25886 2.12057,5.4829 z m 2.222236,-2.59717 c -0.244598,-0.10558 -0.493663,-0.18668 -0.740143,-0.23993 -0.09944,-0.0217 -0.198876,0.0417 -0.220994,0.14177 -0.02152,0.0996 0.04222,0.19855 0.142556,0.22045 0.222675,0.0482 0.448315,0.12135 0.670615,0.21786 0.02438,0.0107 0.04945,0.0152 0.07379,0.0152 0.07212,0 0.140334,-0.0417 0.170626,-0.11153 0.0407,-0.0943 -0.0021,-0.20338 -0.09647,-0.24383 z m -3.917734,0.80092 c -0.220071,0.15328 -0.41969,0.28558 -0.611136,0.40454 -0.08717,0.054 -0.113376,0.1683 -0.05931,0.25515 0.03514,0.0563 0.09609,0.0874 0.158175,0.0874 0.03361,0 0.06729,-0.009 0.09814,-0.028 0.197016,-0.12246 0.402211,-0.25867 0.627303,-0.41509 0.08419,-0.0585 0.104459,-0.17408 0.04569,-0.25813 -0.05889,-0.0843 -0.174717,-0.10447 -0.258912,-0.0459 z m 4.805796,-0.0742 c -0.06319,0.0808 -0.04924,0.19689 0.03195,0.25979 0.181591,0.14176 0.364481,0.30098 0.544218,0.47485 0.03583,0.0347 0.08234,0.0518 0.129175,0.0518 0.04855,0 0.09684,-0.0189 0.13364,-0.0564 0.07137,-0.0735 0.06952,-0.19056 -0.0042,-0.26183 -0.188842,-0.18185 -0.381773,-0.35053 -0.573588,-0.49973 -0.08123,-0.0633 -0.198133,-0.0492 -0.261147,0.0316 z"
       fill="#ffffff"
       id="path2"
       style="display:inline;stroke-width:0.99999" />
  </g>
</svg>
