<?xml version="1.0" encoding="UTF-8" standalone="no"?>
<svg
   width="16"
   height="16"
   fill="currentColor"
   class="bi bi-geo-alt-fill"
   viewBox="0 0 16 16"
   version="1.1"
   id="svg4"
   sodipodi:docname="TargetLocationMarker.svg"
   inkscape:version="1.2.1 (9c6d41e410, 2022-07-14)"
   inkscape:export-filename="..\public\img\TargetLocationMarker.png"
   inkscape:export-xdpi="768"
   inkscape:export-ydpi="768"
   xmlns:inkscape="http://www.inkscape.org/namespaces/inkscape"
   xmlns:sodipodi="http://sodipodi.sourceforge.net/DTD/sodipodi-0.dtd"
   xmlns:xlink="http://www.w3.org/1999/xlink"
   xmlns="http://www.w3.org/2000/svg"
   xmlns:svg="http://www.w3.org/2000/svg">
  <defs
     id="defs8">
    <linearGradient
       inkscape:collect="always"
       id="linearGradient1045">
      <stop
         style="stop-color:#000000;stop-opacity:0.51319647;"
         offset="0"
         id="stop1041" />
      <stop
         style="stop-color:#000000;stop-opacity:0;"
         offset="1"
         id="stop1043" />
    </linearGradient>
    <radialGradient
       inkscape:collect="always"
       xlink:href="#linearGradient1045"
       id="radialGradient1047"
       cx="8.3536444"
       cy="14.222222"
       fx="8.3536444"
       fy="14.222222"
       r="3.9761052"
       gradientTransform="matrix(0.95167021,-8.246205e-8,-2.1240121e-8,0.20017317,0.05008612,11.819419)"
       gradientUnits="userSpaceOnUse" />
    <radialGradient
       inkscape:collect="always"
       xlink:href="#linearGradient1045"
       id="radialGradient327"
       gradientUnits="userSpaceOnUse"
       gradientTransform="matrix(1.2885542,-1.1165299e-7,-2.8758962e-8,0.27103295,-2.7641227,11.014563)"
       cx="8.3536444"
       cy="14.222222"
       fx="8.3536444"
       fy="14.222222"
       r="3.9761052" />
  </defs>
  <sodipodi:namedview
     id="namedview6"
     pagecolor="#a4a4a4"
     bordercolor="#000000"
     borderopacity="0.25"
     inkscape:showpageshadow="2"
     inkscape:pageopacity="0"
     inkscape:pagecheckerboard="0"
     inkscape:deskcolor="#d1d1d1"
     showgrid="false"
     inkscape:zoom="36.990523"
     inkscape:cx="8.9347208"
     inkscape:cy="9.2726452"
     inkscape:window-width="1920"
     inkscape:window-height="1017"
     inkscape:window-x="-8"
     inkscape:window-y="-8"
     inkscape:window-maximized="1"
     inkscape:current-layer="g3912" />
  <g
     inkscape:groupmode="layer"
     id="layer1"
     inkscape:label="base"
     style="display:none">
    <path
       d="m 8,16 c 0,0 6,-5.686 6,-10 A 6,6 0 0 0 2,6 c 0,4.314 6,10 6,10 z M 8,9 A 3,3 0 1 1 8,3 3,3 0 0 1 8,9 Z"
       id="path2" />
  </g>
  <g
     inkscape:groupmode="layer"
     id="layer2"
     inkscape:label="v1"
     style="display:none">
    <ellipse
       style="fill:#ffffff;fill-opacity:1;stroke:none;stroke-width:0;stroke-dasharray:none"
       id="path907"
       cx="8"
       cy="6.3334188"
       rx="2.4989719"
       ry="2.499872" />
    <path
       d="m 8,14.666325 c 0,0 4.999744,-4.7380905 4.999744,-8.3329063 a 4.9997439,4.9997439 0 0 0 -9.9994878,0 C 3.0002562,9.9282345 8,14.666325 8,14.666325 Z M 8,8.8332906 A 2.4998719,2.4998719 0 1 1 8,3.8335468 2.4998719,2.4998719 0 0 1 8,8.8332906 Z"
       id="path298"
       style="fill:#222222;fill-opacity:1;stroke-width:0.833291" />
    <ellipse
       style="fill:url(#radialGradient1047);fill-opacity:1;stroke:none;stroke-width:0;stroke-dasharray:none"
       id="path1016"
       cx="8"
       cy="14.666325"
       rx="4.8112307"
       ry="0.79590958" />
  </g>
  <g
     inkscape:groupmode="layer"
     id="g325"
     inkscape:label="v2"
     style="display:none">
    <ellipse
       style="display:none;fill:#ffffff;fill-opacity:1;stroke:none;stroke-width:0;stroke-dasharray:none"
       id="ellipse319"
       cx="8"
       cy="6.3334188"
       rx="2.4989719"
       ry="2.499872" />
    <ellipse
       style="fill:url(#radialGradient327);fill-opacity:1;stroke:none;stroke-width:0;stroke-dasharray:none"
       id="ellipse323"
       cx="8"
       cy="14.869249"
       rx="6.5143695"
       ry="1.0776556" />
    <path
       d="m 8.0000001,14.180397 c 0,0 4.9999999,-4.7383334 4.9999999,-8.3333333 a 5,5 0 0 0 -9.9999998,0 c 0,3.5949999 4.9999999,8.3333333 4.9999999,8.3333333 z m 0,-5.8333334 a 2.4999999,2.4999999 0 1 1 0,-4.9999998 2.4999999,2.4999999 0 0 1 0,4.9999998 z"
       id="path321"
       style="fill:#222222;fill-opacity:1;stroke:#ffffff;stroke-width:1;stroke-dasharray:none;stroke-opacity:1" />
  </g>
  <g
     inkscape:groupmode="layer"
     id="g3154"
     inkscape:label="v3"
     style="display:none">
    <ellipse
       style="fill:url(#radialGradient327);fill-opacity:1;stroke:none;stroke-width:0;stroke-dasharray:none"
       id="ellipse3150"
       cx="8"
       cy="14.869249"
       rx="6.5143695"
       ry="1.0776556" />
    <path
       d="m 8.0000001,14.180397 c 0,0 4.9999999,-4.7383334 4.9999999,-8.3333333 a 5,5 0 0 0 -9.9999998,0 c 0,3.5949999 4.9999999,8.3333333 4.9999999,8.3333333 z m 0,-5.8333334 a 2.4999999,2.4999999 0 1 1 0,-4.9999998 2.4999999,2.4999999 0 0 1 0,4.9999998 z"
       id="path3152"
       style="fill:#222222;fill-opacity:1;stroke:#ffffff;stroke-width:1;stroke-dasharray:none;stroke-opacity:1" />
    <ellipse
       style="display:inline;fill:#222222;fill-opacity:1;stroke:none;stroke-width:0;stroke-dasharray:none"
       id="ellipse3148"
       cx="8"
       cy="5.847064"
       rx="1.9863547"
       ry="1.9863546" />
  </g>
  <g
     inkscape:groupmode="layer"
     id="g3912"
     inkscape:label="v4">
    <ellipse
       style="fill:#222222;fill-opacity:0.5;stroke:none;stroke-width:0;stroke-dasharray:none"
       id="ellipse3906"
       cx="8"
       cy="14.621727"
       rx="4.0542798"
       ry="0.83129483" />
    <path
       d="m 7.9999998,13.795104 c 0,0 4.7826092,-4.5323196 4.7826092,-7.9710152 a 4.7826089,4.7826089 0 0 0 -9.5652178,0 c 0,3.4386956 4.7826086,7.9710152 4.7826086,7.9710152 z m 0,-5.5797109 a 2.3913043,2.3913043 0 1 1 0,-4.7826086 2.3913043,2.3913043 0 0 1 0,4.7826086 z"
       id="path3908"
       style="fill:#222222;fill-opacity:1;stroke:#ffffff;stroke-width:1.2;stroke-dasharray:none;stroke-opacity:1" />
    <ellipse
       style="display:inline;fill:#222222;fill-opacity:1;stroke:none;stroke-width:0;stroke-dasharray:none"
       id="ellipse3910"
       cx="8"
       cy="5.8240891"
       rx="3.4773638"
       ry="3.4773636" />
  </g>
</svg>
