<?xml version="1.0" encoding="UTF-8" standalone="no"?>
<svg
   xmlns:dc="http://purl.org/dc/elements/1.1/"
   xmlns:cc="http://creativecommons.org/ns#"
   xmlns:rdf="http://www.w3.org/1999/02/22-rdf-syntax-ns#"
   xmlns:svg="http://www.w3.org/2000/svg"
   xmlns="http://www.w3.org/2000/svg"
   xmlns:xlink="http://www.w3.org/1999/xlink"
   xmlns:sodipodi="http://sodipodi.sourceforge.net/DTD/sodipodi-0.dtd"
   xmlns:inkscape="http://www.inkscape.org/namespaces/inkscape"
   inkscape:export-ydpi="768"
   inkscape:export-xdpi="768"
   inkscape:export-filename="..\public\img\TargetLocationMarker.png"
   inkscape:version="1.0 (4035a4fb49, 2020-05-01)"
   sodipodi:docname="TargetLocationMarker.svg"
   id="svg4"
   version="1.1"
   viewBox="0 0 16 16"
   class="bi bi-geo-alt-fill"
   fill="currentColor"
   height="16"
   width="16">
  <metadata
     id="metadata28">
    <rdf:RDF>
      <cc:Work
         rdf:about="">
        <dc:format>image/svg+xml</dc:format>
        <dc:type
           rdf:resource="http://purl.org/dc/dcmitype/StillImage" />
      </cc:Work>
    </rdf:RDF>
  </metadata>
  <defs
     id="defs8">
    <linearGradient
       id="linearGradient1045"
       inkscape:collect="always">
      <stop
         id="stop1041"
         offset="0"
         style="stop-color:#000000;stop-opacity:0.51319647;" />
      <stop
         id="stop1043"
         offset="1"
         style="stop-color:#000000;stop-opacity:0;" />
    </linearGradient>
    <radialGradient
       gradientUnits="userSpaceOnUse"
       gradientTransform="matrix(0.95167021,-8.246205e-8,-2.1240121e-8,0.20017317,0.05008612,11.819419)"
       r="3.9761052"
       fy="14.222222"
       fx="8.3536444"
       cy="14.222222"
       cx="8.3536444"
       id="radialGradient1047"
       xlink:href="#linearGradient1045"
       inkscape:collect="always" />
    <radialGradient
       r="3.9761052"
       fy="14.222222"
       fx="8.3536444"
       cy="14.222222"
       cx="8.3536444"
       gradientTransform="matrix(1.2885542,-1.1165299e-7,-2.8758962e-8,0.27103295,-2.7641227,11.014563)"
       gradientUnits="userSpaceOnUse"
       id="radialGradient327"
       xlink:href="#linearGradient1045"
       inkscape:collect="always" />
  </defs>
  <sodipodi:namedview
     inkscape:document-rotation="0"
     inkscape:current-layer="g3912"
     inkscape:window-maximized="1"
     inkscape:window-y="1059"
     inkscape:window-x="3832"
     inkscape:window-height="1017"
     inkscape:window-width="1920"
     inkscape:cy="6.8071924"
     inkscape:cx="9.45627"
     inkscape:zoom="25.464763"
     showgrid="false"
     inkscape:deskcolor="#d1d1d1"
     inkscape:pagecheckerboard="0"
     inkscape:pageopacity="0"
     inkscape:showpageshadow="2"
     borderopacity="0.25"
     bordercolor="#000000"
     pagecolor="#a4a4a4"
     id="namedview6" />
  <g
     style="display:none"
     inkscape:label="base"
     id="layer1"
     inkscape:groupmode="layer">
    <path
       id="path2"
       d="m 8,16 c 0,0 6,-5.686 6,-10 A 6,6 0 0 0 2,6 c 0,4.314 6,10 6,10 z M 8,9 A 3,3 0 1 1 8,3 3,3 0 0 1 8,9 Z" />
  </g>
  <g
     style="display:none"
     inkscape:label="v1"
     id="layer2"
     inkscape:groupmode="layer">
    <ellipse
       ry="2.499872"
       rx="2.4989719"
       cy="6.3334188"
       cx="8"
       id="path907"
       style="fill:#ffffff;fill-opacity:1;stroke:none;stroke-width:0;stroke-dasharray:none" />
    <path
       style="fill:#222222;fill-opacity:1;stroke-width:0.833291"
       id="path298"
       d="m 8,14.666325 c 0,0 4.999744,-4.7380905 4.999744,-8.3329063 a 4.9997439,4.9997439 0 0 0 -9.9994878,0 C 3.0002562,9.9282345 8,14.666325 8,14.666325 Z M 8,8.8332906 A 2.4998719,2.4998719 0 1 1 8,3.8335468 2.4998719,2.4998719 0 0 1 8,8.8332906 Z" />
    <ellipse
       ry="0.79590958"
       rx="4.8112307"
       cy="14.666325"
       cx="8"
       id="path1016"
       style="fill:url(#radialGradient1047);fill-opacity:1;stroke:none;stroke-width:0;stroke-dasharray:none" />
  </g>
  <g
     style="display:none"
     inkscape:label="v2"
     id="g325"
     inkscape:groupmode="layer">
    <ellipse
       ry="2.499872"
       rx="2.4989719"
       cy="6.3334188"
       cx="8"
       id="ellipse319"
       style="display:none;fill:#ffffff;fill-opacity:1;stroke:none;stroke-width:0;stroke-dasharray:none" />
    <ellipse
       ry="1.0776556"
       rx="6.5143695"
       cy="14.869249"
       cx="8"
       id="ellipse323"
       style="fill:url(#radialGradient327);fill-opacity:1;stroke:none;stroke-width:0;stroke-dasharray:none" />
    <path
       style="fill:#222222;fill-opacity:1;stroke:#ffffff;stroke-width:1;stroke-dasharray:none;stroke-opacity:1"
       id="path321"
       d="m 8.0000001,14.180397 c 0,0 4.9999999,-4.7383334 4.9999999,-8.3333333 a 5,5 0 0 0 -9.9999998,0 c 0,3.5949999 4.9999999,8.3333333 4.9999999,8.3333333 z m 0,-5.8333334 a 2.4999999,2.4999999 0 1 1 0,-4.9999998 2.4999999,2.4999999 0 0 1 0,4.9999998 z" />
  </g>
  <g
     style="display:none"
     inkscape:label="v3"
     id="g3154"
     inkscape:groupmode="layer">
    <ellipse
       ry="1.0776556"
       rx="6.5143695"
       cy="14.869249"
       cx="8"
       id="ellipse3150"
       style="fill:url(#radialGradient327);fill-opacity:1;stroke:none;stroke-width:0;stroke-dasharray:none" />
    <path
       style="fill:#222222;fill-opacity:1;stroke:#ffffff;stroke-width:1;stroke-dasharray:none;stroke-opacity:1"
       id="path3152"
       d="m 8.0000001,14.180397 c 0,0 4.9999999,-4.7383334 4.9999999,-8.3333333 a 5,5 0 0 0 -9.9999998,0 c 0,3.5949999 4.9999999,8.3333333 4.9999999,8.3333333 z m 0,-5.8333334 a 2.4999999,2.4999999 0 1 1 0,-4.9999998 2.4999999,2.4999999 0 0 1 0,4.9999998 z" />
    <ellipse
       ry="1.9863546"
       rx="1.9863547"
       cy="5.847064"
       cx="8"
       id="ellipse3148"
       style="display:inline;fill:#222222;fill-opacity:1;stroke:none;stroke-width:0;stroke-dasharray:none" />
  </g>
  <g
     inkscape:label="v4"
     id="g3912"
     inkscape:groupmode="layer">
    <ellipse
       ry="0.83129483"
       rx="4.0542798"
       cy="14.621727"
       cx="8"
       id="ellipse3906"
       style="fill:#222222;fill-opacity:0.30000001;stroke:none;stroke-width:0;stroke-dasharray:none" />
    <path
       style="fill:#222222;fill-opacity:1;stroke:#ffffff;stroke-width:1.2;stroke-dasharray:none;stroke-opacity:1"
       id="path3908"
       d="m 7.9999998,13.795104 c 0,0 4.7826092,-4.5323196 4.7826092,-7.9710152 a 4.7826089,4.7826089 0 0 0 -9.5652178,0 c 0,3.4386956 4.7826086,7.9710152 4.7826086,7.9710152 z m 0,-5.5797109 a 2.3913043,2.3913043 0 1 1 0,-4.7826086 2.3913043,2.3913043 0 0 1 0,4.7826086 z" />
    <ellipse
       ry="3.4773636"
       rx="3.4773638"
       cy="5.8240891"
       cx="8"
       id="ellipse3910"
       style="display:inline;fill:#222222;fill-opacity:1;stroke:none;stroke-width:0;stroke-dasharray:none" />
  </g>
</svg>
