<?xml version="1.0" encoding="UTF-8"?>
<svg width="144.78mm" height="18.522mm" version="1.1" viewBox="0 0 144.78 18.522" xmlns="http://www.w3.org/2000/svg">
 <g transform="translate(-24.705 -86.918)">
  <g transform="translate(-222.46 -21.833)" fill="#fff">
   <path d="m251.71 122.37c-0.0684-0.076-0.18586-0.0828-0.26244-0.0149-0.0766 0.0681-0.0833 0.18502-0.0149 0.26164 0.17565 0.19597 0.36282 0.37522 0.55612 0.53331 0.0347 0.0279 0.0762 0.0419 0.11765 0.0419 0.0539 0 0.10725-0.023 0.14386-0.0675 0.0653-0.0794 0.0533-0.19614-0.026-0.26053-0.17843-0.14623-0.35147-0.31176-0.51429-0.49398zm4.1238 0.86512c-0.22471 0.0987-0.4524 0.18502-0.67619 0.25702-0.0976 0.0316-0.15129 0.13564-0.12007 0.23324 0.0255 0.0787 0.0983 0.12823 0.17695 0.12823 0.019 0 0.0381-3e-3 0.0571-9e-3 0.23605-0.0755 0.47563-0.16664 0.71209-0.27073 0.0939-0.0412 0.13642-0.1505 0.0952-0.24383-0.0412-0.0933-0.15074-0.13621-0.24498-0.0948zm9.8244 3.5364-2.4886-6.4348c-0.0368-0.0954-0.1117-0.17128-0.20631-0.20969l-3.7036-1.5055c-0.0842-0.0343-0.17787-0.0364-0.26356-6e-3l-0.13549 0.0477c1.0998-1.7102 2.3536-4.0203 2.3536-5.6686-1.8e-4 -2.3374-1.9081-4.2389-4.2543-4.2389-2.346 0-4.2545 1.9015-4.2545 4.2387 0 2.0197 1.8968 5.0312 3.0817 6.716l-3.6006-1.2146c-0.1355-0.0456-0.28642-0.01-0.38623 0.0932l-4.5335 4.664c-0.0797 0.0818-0.11709 0.19614-0.10111 0.3088 0.0158 0.11299 0.0829 0.21263 0.18196 0.26943l5.8907 3.3914h5.4e-4l5e-3 4e-3c4e-3 2e-3 8e-3 3e-3 0.0121 5e-3 0.0164 9e-3 0.0325 0.0174 0.0503 0.0239 5e-3 2e-3 0.01 2e-3 0.0143 4e-3 6e-3 2e-3 0.013 4e-3 0.0197 5e-3 0.0225 5e-3 0.045 9e-3 0.0674 0.0108 4e-3 1.8e-4 9e-3 2e-3 0.0135 2e-3h8e-3c7e-3 0 0.0145-3e-3 0.0219-3e-3 0.0253-2e-3 0.0502-5e-3 0.0749-0.0116 0.0121-3e-3 0.0234-8e-3 0.0351-0.0119 0.0108-4e-3 0.0221-6e-3 0.0327-0.0115l5.161-2.5424c0.0346 0.0122 0.0708 0.0209 0.10929 0.0225h0.0143c0.029 0 0.0572-4e-3 0.0842-0.0109l6.2065 2.5407c0.0453 0.0189 0.0937 0.0277 0.14125 0.0277 0.0954 0 0.18922-0.0364 0.25966-0.10559 0.10688-0.10337 0.14107-0.25979 0.0875-0.39785zm-9.589-10.011c0-0.50456 0.4182-0.93078 0.91431-0.93078 0.50668 0 0.93417 0.42624 0.93417 0.93078 0 0.49433-0.42786 0.91185-0.93417 0.91185-0.49608 0-0.91431-0.41753-0.91431-0.91185zm-0.87675-4.9644c-0.0777-0.0681-0.0681-0.18409 0-0.25201 0 0 0.72063-0.85361 1.9763-0.85361 1.031 0 1.9854 0.7178 1.9854 1.697 0 1.2794-1.4598 1.3183-1.4598 2.3656 0 0.10689-0.0879 0.18445-0.18531 0.18445h-1.0413c-0.0976 0-0.18457-0.0774-0.18457-0.18445v-0.40677c0-0.8152 1.3435-1.1735 1.3435-1.7938 0-0.30099-0.31189-0.57227-0.73028-0.57227-0.68139 0-0.86612 0.61124-1.1096 0.39784zm-2.0311 12.033c0.24256 0.0894 0.49608 0.1555 0.75369 0.19503 0.01 2e-3 0.0192 2e-3 0.0285 2e-3 0.0506 0 0.0965-0.0219 0.13048-0.0564l-0.84536 2.3914-5.0963-2.9341 2.2975-2.3637c0.0537 0.11988 0.129 0.27724 0.23048 0.4602 0.034 0.0613 0.0972 0.0958 0.16282 0.0958 0.0303 0 0.0612-8e-3 0.0896-0.023 0.0898-0.0496 0.12249-0.16218 0.0729-0.25163-0.14331-0.25887-0.2329-0.46559-0.27509-0.56968l1.4602-1.5025 3.1839 1.074-1.2297 3.4789c-7e-3 -0.0829-0.0669-0.15421-0.15334-0.16739-0.23271-0.0354-0.4617-0.0952-0.68102-0.17609-0.0957-0.0353-0.20315 0.0134-0.23884 0.10948-0.0357 0.0955 0.0134 0.20208 0.10966 0.23751zm5.4552-2.3361c-0.0702 0.0596-0.0889 0.162-0.0362 0.24067 8e-3 0.0115 0.0167 0.0209 0.0262 0.0301l-0.0848 2.2203-4.4366 2.1858 2.0373-5.7633 0.13308-0.0466c0.2539 0.34366 0.42527 0.56133 0.45686 0.6016 0.064 0.0807 0.16153 0.12768 0.26468 0.12768h6.9e-4c0.10372 0 0.20112-0.0477 0.26487-0.12862 0.0487-0.0619 0.42731-0.54758 0.93174-1.2722l0.51875-0.18166zm0.64737 2.5359 0.0946-2.4756c0.0301-7e-3 0.0602-0.0139 0.0907-0.0197 0.10092-0.0189 0.1669-0.11561 0.14813-0.216-0.0193-0.10077-0.11598-0.16607-0.21709-0.1479-3e-3 0-5e-3 2e-3 -7e-3 2e-3l0.0641-1.6775 3.0966 1.2589 2.1206 5.4829zm2.2222-2.5972c-0.24459-0.10558-0.49366-0.18668-0.74014-0.23993-0.0994-0.0217-0.19887 0.0417-0.22099 0.14177-0.0215 0.0996 0.0422 0.19855 0.14255 0.22045 0.22268 0.0482 0.44832 0.12135 0.67062 0.21786 0.0244 0.0107 0.0495 0.0152 0.0738 0.0152 0.0721 0 0.14033-0.0417 0.17062-0.11153 0.0407-0.0943-2e-3 -0.20338-0.0965-0.24383zm-3.9177 0.80092c-0.22007 0.15328-0.41969 0.28558-0.61114 0.40454-0.0872 0.054-0.11337 0.1683-0.0593 0.25515 0.0351 0.0563 0.0961 0.0874 0.15818 0.0874 0.0336 0 0.0673-9e-3 0.0981-0.028 0.19702-0.12246 0.40221-0.25867 0.6273-0.41509 0.0842-0.0585 0.10446-0.17408 0.0457-0.25813-0.0589-0.0843-0.17471-0.10447-0.25891-0.0459zm4.8058-0.0742c-0.0632 0.0808-0.0492 0.19689 0.032 0.25979 0.18159 0.14176 0.36448 0.30098 0.54421 0.47485 0.0358 0.0347 0.0823 0.0518 0.12918 0.0518 0.0486 0 0.0968-0.0189 0.13364-0.0564 0.0714-0.0735 0.0695-0.19056-4e-3 -0.26183-0.18884-0.18185-0.38177-0.35053-0.57359-0.49973-0.0812-0.0633-0.19813-0.0492-0.26115 0.0316z" stroke-width=".99999"/>
   <g transform="translate(146.57)" stroke-width=".26458" aria-label="KNOW WHERE YOU GO">
    <path d="m120.25 110.2v7.9023h1.366v-7.9023zm4.3011 0-3.3416 3.7367 3.477 4.1656h1.6369l-3.4996-4.1995 3.3303-3.7028z"/>
    <path d="m133.01 110.2v5.3058l-5.7687-5.701v8.2974h1.3095v-5.3058l5.7687 5.7009v-8.2974z"/>
    <path d="m137.02 114.16q0-0.81281 0.33867-1.445 0.34996-0.64348 0.95957-1.0047 0.6096-0.36125 1.3885-0.36125 0.80152 0 1.3998 0.36125 0.60961 0.36124 0.94828 1.0047 0.33867 0.63218 0.33867 1.445t-0.34996 1.4563q-0.33867 0.63218-0.94828 0.99343-0.59832 0.36125-1.3886 0.36125-0.77894 0-1.3885-0.36125-0.60961-0.36125-0.95957-0.99343-0.33867-0.64347-0.33867-1.4563zm-1.4111 0q0 0.88054 0.3048 1.6369 0.3048 0.75637 0.84668 1.3095 0.55316 0.55316 1.3095 0.86925 0.75636 0.3048 1.6369 0.3048 0.89184 0 1.6369-0.3048 0.75636-0.31609 1.3095-0.86925t0.85797-1.3095q0.3048-0.75636 0.3048-1.6369 0-0.89183-0.3048-1.6369-0.30481-0.74507-0.86926-1.2869-0.55316-0.55316-1.2982-0.85797-0.74507-0.3048-1.6369-0.3048-0.86925 0-1.6256 0.3048-0.74508 0.30481-1.3095 0.85797-0.55316 0.54187-0.85796 1.2869-0.3048 0.74508-0.3048 1.6369z"/>
    <path d="m151.94 115.5-2.2691-5.6897-2.2465 5.6897-1.874-5.2945h-1.5466l3.2287 8.32 2.4384-5.588 2.4384 5.588 3.2287-8.32h-1.5466z"/>
    <path d="m166.85 115.5-2.2691-5.6897-2.2465 5.6897-1.874-5.2945h-1.5466l3.2286 8.32 2.4384-5.588 2.4384 5.588 3.2286-8.32h-1.5466z"/>
    <path d="m171.74 114.48h5.6332v-1.2305h-5.6332zm4.7752-4.2785v7.9023h1.3321v-7.9023zm-5.3058 0v7.9023h1.3321v-7.9023z"/>
    <path d="m180.43 118.11h3.985v-1.1741h-3.985zm0-6.7282h3.985v-1.1741h-3.985zm0 3.0706h3.7592v-1.1515h-3.7592zm-0.8241-4.2447v7.9023h1.3095v-7.9023z"/>
    <path d="m187.67 114.34 2.5174 3.7705h1.603l-2.6755-3.7705zm-1.6256-4.1318v7.9023h1.3321v-7.9023zm0.79023 1.1515h1.5918q0.45156 0 0.79023 0.15804 0.34996 0.15805 0.54187 0.45156 0.19191 0.29352 0.19191 0.7225 0 0.41769-0.19191 0.7225-0.19191 0.29351-0.54187 0.45156-0.33867 0.15804-0.79023 0.15804h-1.5918v1.095h1.6482q0.85797 0 1.4902-0.3048 0.64347-0.3048 0.99343-0.85796t0.34996-1.2982q0-0.74507-0.34996-1.2869-0.34996-0.55316-0.99343-0.85797-0.63218-0.3048-1.4902-0.3048h-1.6482z"/>
    <path d="m193.6 118.11h3.985v-1.1741h-3.985zm0-6.7282h3.985v-1.1741h-3.985zm0 3.0706h3.7592v-1.1515h-3.7592zm-0.8241-4.2447v7.9023h1.3095v-7.9023z"/>
    <path d="m206.95 110.2-1.8401 3.3867-1.8401-3.3867h-1.5127l2.6755 4.5833v3.319h1.3547v-3.3303l2.6868-4.572z"/>
    <path d="m209.78 114.16q0-0.81281 0.33867-1.445 0.34996-0.64348 0.95957-1.0047 0.6096-0.36125 1.3885-0.36125 0.80152 0 1.3998 0.36125 0.6096 0.36124 0.94827 1.0047 0.33867 0.63218 0.33867 1.445t-0.34995 1.4563q-0.33867 0.63218-0.94828 0.99343-0.59832 0.36125-1.3886 0.36125-0.77894 0-1.3885-0.36125-0.60961-0.36125-0.95957-0.99343-0.33867-0.64347-0.33867-1.4563zm-1.4111 0q0 0.88054 0.3048 1.6369 0.3048 0.75637 0.84667 1.3095 0.55316 0.55316 1.3095 0.86925 0.75636 0.3048 1.6369 0.3048 0.89183 0 1.6369-0.3048 0.75636-0.31609 1.3095-0.86925t0.85797-1.3095q0.3048-0.75636 0.3048-1.6369 0-0.89183-0.3048-1.6369-0.30481-0.74507-0.86926-1.2869-0.55316-0.55316-1.2982-0.85797-0.74508-0.3048-1.6369-0.3048-0.86925 0-1.6256 0.3048-0.74508 0.30481-1.3095 0.85797-0.55316 0.54187-0.85796 1.2869-0.3048 0.74508-0.3048 1.6369z"/>
    <path d="m217.83 110.2v5.3058q0 0.65476 0.20321 1.1741 0.2032 0.508 0.58702 0.86925 0.39512 0.36125 0.9257 0.55316t1.1628 0.19191q0.63218 0 1.1628-0.19191 0.53058-0.19191 0.9144-0.55316 0.38383-0.36125 0.58703-0.86925 0.21449-0.5193 0.21449-1.1741v-5.3058h-1.3321v5.2494q0 0.73379-0.39511 1.1854-0.39512 0.44027-1.1515 0.44027-0.76765 0-1.1628-0.44027-0.38382-0.45156-0.38382-1.1854v-5.2494z"/>
    <path d="m232.45 115.1h2.4271q-0.1016 0.39511-0.3048 0.74507t-0.508 0.62089q-0.30481 0.27094-0.7225 0.4177-0.41769 0.14675-0.94828 0.14675-0.77894 0-1.3998-0.36124-0.6209-0.36125-0.99343-1.0047-0.36125-0.65477-0.36125-1.5127 0-0.86925 0.37254-1.5014 0.37253-0.64347 0.99343-0.99343 0.62089-0.36125 1.3885-0.36125 0.8241 0 1.3998 0.33867 0.58703 0.33867 0.91441 0.90312l1.0837-0.72249q-0.34996-0.55316-0.85796-0.93699-0.49672-0.39512-1.1289-0.59832-0.63218-0.21449-1.4111-0.21449-0.89183 0-1.6595 0.29352-0.75636 0.29351-1.3208 0.84667-0.55316 0.54187-0.86925 1.2982-0.30481 0.74507-0.30481 1.6482t0.30481 1.6595q0.3048 0.75637 0.85796 1.3095 0.56445 0.55316 1.3208 0.85796 0.75637 0.29351 1.6482 0.29351 0.93698 0 1.6708-0.33867 0.74507-0.34995 1.2418-0.94827 0.49671-0.59832 0.74507-1.366 0.24836-0.77894 0.22578-1.6482h-3.8044z"/>
    <path d="m238.58 114.16q0-0.81281 0.33867-1.445 0.34996-0.64348 0.95956-1.0047 0.60961-0.36125 1.3886-0.36125 0.80152 0 1.3998 0.36125 0.6096 0.36124 0.94827 1.0047 0.33867 0.63218 0.33867 1.445t-0.34996 1.4563q-0.33867 0.63218-0.94827 0.99343-0.59832 0.36125-1.3886 0.36125-0.77894 0-1.3886-0.36125-0.6096-0.36125-0.95956-0.99343-0.33867-0.64347-0.33867-1.4563zm-1.4111 0q0 0.88054 0.30481 1.6369 0.3048 0.75637 0.84667 1.3095 0.55316 0.55316 1.3095 0.86925 0.75636 0.3048 1.6369 0.3048 0.89183 0 1.6369-0.3048 0.75636-0.31609 1.3095-0.86925t0.85796-1.3095q0.30481-0.75636 0.30481-1.6369 0-0.89183-0.30481-1.6369-0.3048-0.74507-0.86925-1.2869-0.55316-0.55316-1.2982-0.85797-0.74508-0.3048-1.6369-0.3048-0.86925 0-1.6256 0.3048-0.74508 0.30481-1.3095 0.85797-0.55316 0.54187-0.85796 1.2869-0.30481 0.74508-0.30481 1.6369z"/>
   </g>
   <g transform="translate(146.57)" stroke-width=".26458" aria-label="Location Based Service">
    <path d="m125.53 119.71v5.9267h2.9125v-0.44027h-2.4469v-5.4864z"/>
    <path d="m128.89 123.69q0 0.5842 0.26247 1.0499 0.26247 0.4572 0.7112 0.71967 0.4572 0.26246 1.0245 0.26246t1.016-0.26246q0.4572-0.26247 0.71967-0.71967 0.26246-0.46567 0.26246-1.0499 0-0.59267-0.26246-1.0499-0.26247-0.4572-0.71967-0.71966-0.44874-0.26247-1.016-0.26247t-1.0245 0.26247q-0.44873 0.26246-0.7112 0.71966-0.26247 0.45721-0.26247 1.0499zm0.44874 0q0-0.47414 0.2032-0.83821t0.55033-0.56727q0.35561-0.21166 0.79587-0.21166 0.44027 0 0.78741 0.21166 0.3556 0.2032 0.5588 0.57574 0.2032 0.36407 0.2032 0.82974 0 0.47413-0.2032 0.8382t-0.5588 0.57573q-0.34714 0.20321-0.78741 0.20321-0.44026 0-0.79587-0.20321-0.34713-0.21166-0.55033-0.57573t-0.2032-0.8382z"/>
    <path d="m133.96 123.69q0-0.47414 0.2032-0.83821 0.20321-0.36407 0.55034-0.56727 0.3556-0.21166 0.79587-0.21166 0.31327 0 0.5842 0.0931 0.27094 0.0931 0.46567 0.23707 0.2032 0.14393 0.28787 0.3048v-0.55034q-0.1778-0.2032-0.55034-0.34713-0.36407-0.1524-0.7874-0.1524-0.56727 0-1.016 0.26247-0.44874 0.26246-0.71967 0.71966-0.26247 0.45721-0.26247 1.0499 0 0.5842 0.26247 1.0499 0.27093 0.4572 0.71967 0.71967 0.44873 0.26246 1.016 0.26246 0.42333 0 0.7874-0.14393 0.37254-0.14393 0.55034-0.3556v-0.55034q-0.0847 0.1524-0.28787 0.3048-0.19473 0.14394-0.46567 0.23707-0.27093 0.0931-0.5842 0.0931-0.44027 0-0.79587-0.20321-0.34713-0.21166-0.55034-0.57573-0.2032-0.36407-0.2032-0.8382z"/>
    <path d="m138.04 124.47q0-0.29633 0.13547-0.4826t0.37254-0.2794q0.24553-0.0931 0.57573-0.0931 0.3556 0 0.67734 0.1016 0.3302 0.0931 0.61807 0.29633v-0.2794q-0.0762-0.0762-0.254-0.18627t-0.45721-0.19473q-0.27093-0.0931-0.65193-0.0931-0.67734 0-1.0753 0.33021-0.38947 0.3302-0.38947 0.89747 0 0.41486 0.18627 0.6858 0.18626 0.27093 0.49107 0.41487 0.3048 0.13546 0.635 0.13546 0.33867 0 0.66887-0.14393t0.55033-0.44027q0.22014-0.29633 0.22014-0.75353l-0.1016-0.37254q0 0.4318-0.16934 0.72814-0.16933 0.29633-0.44873 0.44873-0.27094 0.1524-0.60114 0.1524-0.27093 0-0.49953-0.0931-0.22014-0.1016-0.3556-0.29634-0.12701-0.19473-0.12701-0.4826zm0.0169-2.0151q0.11007-0.0847 0.27093-0.1778 0.16934-0.0931 0.39794-0.16087 0.2286-0.0677 0.51647-0.0677 0.2794 0 0.47413 0.0762 0.19474 0.0762 0.3048 0.2032 0.11854 0.127 0.16934 0.28786 0.0508 0.15241 0.0508 0.32174v2.7009h0.44027v-2.7602q0-0.38947-0.16934-0.6604-0.16933-0.27093-0.4826-0.41487-0.31327-0.14393-0.75354-0.14393-0.51647 0-0.87207 0.16087-0.34713 0.1524-0.56727 0.3048z"/>
    <path d="m141.3 121.74v0.41487h1.7103v-0.41487zm0.635-1.3547v5.2494h0.44027v-5.2494z"/>
    <path d="m143.76 119.98q0 0.127 0.0931 0.22014 0.0931 0.0931 0.22013 0.0931 0.13547 0 0.22014-0.0931 0.0931-0.0931 0.0931-0.22014 0-0.13547-0.0931-0.22013-0.0847-0.0931-0.22014-0.0931-0.127 0-0.22013 0.0931-0.0931 0.0847-0.0931 0.22013zm0.0931 1.7611v3.8947h0.44027v-3.8947z"/>
    <path d="m145.39 123.69q0 0.5842 0.26247 1.0499 0.26247 0.4572 0.7112 0.71967 0.4572 0.26246 1.0245 0.26246t1.016-0.26246q0.4572-0.26247 0.71967-0.71967 0.26246-0.46567 0.26246-1.0499 0-0.59267-0.26246-1.0499-0.26247-0.4572-0.71967-0.71966-0.44874-0.26247-1.016-0.26247t-1.0245 0.26247q-0.44873 0.26246-0.7112 0.71966-0.26247 0.45721-0.26247 1.0499zm0.44874 0q0-0.47414 0.2032-0.83821t0.55033-0.56727q0.3556-0.21166 0.79587-0.21166t0.78741 0.21166q0.3556 0.2032 0.5588 0.57574 0.2032 0.36407 0.2032 0.82974 0 0.47413-0.2032 0.8382t-0.5588 0.57573q-0.34714 0.20321-0.78741 0.20321t-0.79587-0.20321q-0.34713-0.21166-0.55033-0.57573t-0.2032-0.8382z"/>
    <path d="m152.89 123.13v2.5062h0.44026v-2.557q0-0.65193-0.32173-1.0329-0.32174-0.38947-0.93134-0.38947-0.4318 0-0.762 0.23707-0.32173 0.23706-0.4826 0.6604v-0.81281h-0.44027v3.8947h0.44027v-2.3707q0-0.33867 0.14393-0.6096 0.1524-0.27094 0.4064-0.42334 0.26247-0.16086 0.59267-0.16086 0.47414 0 0.69427 0.2794 0.22014 0.2794 0.22014 0.77893z"/>
    <path d="m157.63 122.45h0.95673q0.49954 0 0.88054-0.14394 0.381-0.1524 0.59267-0.44026 0.22013-0.29634 0.22013-0.72814 0-0.47414-0.21167-0.7874-0.21166-0.32174-0.60113-0.48261-0.381-0.16086-0.9144-0.16086h-1.2869v5.9267h1.3716q0.57574 0 1.016-0.18627 0.44873-0.18627 0.70273-0.56727t0.254-0.9652q0-0.40641-0.16933-0.70274-0.16087-0.3048-0.44027-0.49953-0.27093-0.19474-0.61807-0.28787-0.34713-0.1016-0.7112-0.1016h-1.0414v0.27093h1.0075q0.3048 0 0.56727 0.0847 0.27094 0.0847 0.4826 0.254 0.21167 0.16087 0.3302 0.4064 0.11854 0.23707 0.11854 0.55034 0 0.44026-0.18627 0.7366-0.18627 0.28787-0.52493 0.44027-0.33867 0.1524-0.78741 0.1524h-0.90593v-5.097h0.82127q0.57573 0 0.9144 0.2794 0.34713 0.27093 0.34713 0.762 0 0.34713-0.16933 0.57573-0.16933 0.22014-0.4572 0.33021-0.28787 0.11006-0.635 0.11006h-0.92287z"/>
    <path d="m161.81 124.47q0-0.29633 0.13547-0.4826 0.13546-0.18627 0.37253-0.2794 0.24553-0.0931 0.57574-0.0931 0.3556 0 0.67733 0.1016 0.3302 0.0931 0.61807 0.29633v-0.2794q-0.0762-0.0762-0.254-0.18627t-0.4572-0.19473q-0.27094-0.0931-0.65194-0.0931-0.67733 0-1.0753 0.33021-0.38947 0.3302-0.38947 0.89747 0 0.41486 0.18627 0.6858 0.18627 0.27093 0.49107 0.41487 0.3048 0.13546 0.635 0.13546 0.33867 0 0.66887-0.14393t0.55034-0.44027q0.22013-0.29633 0.22013-0.75353l-0.1016-0.37254q0 0.4318-0.16933 0.72814-0.16934 0.29633-0.44874 0.44873-0.27093 0.1524-0.60113 0.1524-0.27094 0-0.49954-0.0931-0.22013-0.1016-0.3556-0.29634-0.127-0.19473-0.127-0.4826zm0.0169-2.0151q0.11007-0.0847 0.27094-0.1778 0.16933-0.0931 0.39793-0.16087 0.2286-0.0677 0.51647-0.0677 0.2794 0 0.47413 0.0762 0.19474 0.0762 0.30481 0.2032 0.11853 0.127 0.16933 0.28786 0.0508 0.15241 0.0508 0.32174v2.7009h0.44027v-2.7602q0-0.38947-0.16934-0.6604-0.16933-0.27093-0.4826-0.41487-0.31327-0.14393-0.75353-0.14393-0.51647 0-0.87207 0.16087-0.34714 0.1524-0.56727 0.3048z"/>
    <path d="m165.65 124.53-0.3556 0.2032q0.0847 0.24553 0.26247 0.47413 0.18627 0.22861 0.4826 0.37254 0.3048 0.14393 0.7112 0.14393 0.55881 0 0.90594-0.31326 0.3556-0.32174 0.3556-0.82974 0-0.3302-0.16933-0.54187-0.16087-0.21167-0.4318-0.3556-0.26247-0.14393-0.57574-0.26247-0.23707-0.0847-0.44873-0.1778-0.21167-0.0931-0.33867-0.23707-0.127-0.1524-0.127-0.381 0-0.2794 0.19473-0.42333 0.2032-0.14394 0.49107-0.14394 0.38947 0 0.635 0.18627 0.24554 0.18627 0.381 0.44027l0.36407-0.22014q-0.1016-0.22013-0.28787-0.39793-0.18626-0.1778-0.44873-0.28787t-0.59267-0.11007q-0.3048 0-0.57574 0.11007-0.26246 0.1016-0.4318 0.32174-0.16086 0.22013-0.16086 0.55033 0 0.34714 0.16086 0.56727 0.16934 0.21167 0.42334 0.33867t0.52493 0.2286q0.254 0.0847 0.47414 0.19473 0.22013 0.1016 0.3556 0.26247 0.13547 0.1524 0.13547 0.38947 0 0.32173-0.22014 0.508-0.21166 0.1778-0.56727 0.1778-0.3048 0-0.5334-0.11007-0.22013-0.11006-0.36407-0.28786-0.14393-0.1778-0.2286-0.38947z"/>
    <path d="m170.53 125.72q0.58421 0 1.016-0.23706 0.44027-0.24554 0.77047-0.75354l-0.3556-0.2286q-0.26247 0.41487-0.60114 0.6096-0.3302 0.19474-0.77894 0.19474-0.42333 0-0.74507-0.20321-0.31326-0.2032-0.49106-0.57573-0.16934-0.37254-0.16934-0.87207 0-0.49107 0.1778-0.84667 0.1778-0.36407 0.49107-0.5588 0.32174-0.2032 0.75354-0.2032 0.37253 0 0.66887 0.1778 0.29633 0.1778 0.46566 0.49107 0.17781 0.31326 0.17781 0.7112 0 0.0677-0.0254 0.14393-0.0169 0.0677-0.0339 0.11007l0.18627-0.26247h-3.0311v0.381h3.3613q8e-3 -0.0423 8e-3 -0.1016 8e-3 -0.0593 8e-3 -0.11006 0-0.56727-0.2286-0.99908-0.22013-0.44026-0.62654-0.6858-0.39793-0.24553-0.93133-0.24553-0.55034 0-0.97367 0.26247-0.42334 0.254-0.66041 0.7112-0.23706 0.4572-0.23706 1.0499t0.2286 1.0583q0.23706 0.4572 0.64347 0.71967 0.4064 0.26246 0.93133 0.26246z"/>
    <path d="m176.37 119.03v6.604h0.44027v-6.604zm-3.3274 4.6567q0 0.62653 0.254 1.0837t0.67734 0.70274q0.4318 0.24553 0.94827 0.24553 0.508 0 0.87207-0.26246 0.36406-0.27094 0.56726-0.72814 0.21167-0.46567 0.21167-1.0414 0-0.58421-0.21167-1.0414-0.2032-0.4572-0.56726-0.71967-0.36407-0.27093-0.87207-0.27093-0.51647 0-0.94827 0.24553-0.42334 0.24554-0.67734 0.70274-0.254 0.44873-0.254 1.0837zm0.44873 0q0-0.50801 0.19474-0.87207 0.2032-0.36407 0.54187-0.55034 0.34713-0.19473 0.75353-0.19473 0.36407 0 0.67734 0.21166 0.32173 0.21167 0.51647 0.57574 0.19473 0.36407 0.19473 0.82974 0 0.46566-0.19473 0.82973-0.19474 0.36407-0.51647 0.57574-0.31327 0.21167-0.67734 0.21167-0.4064 0-0.75353-0.18627-0.33867-0.19474-0.54187-0.5588-0.19474-0.36407-0.19474-0.87207z"/>
    <path d="m180.74 123.92-0.381 0.23707q0.14394 0.41487 0.4064 0.77047 0.26247 0.3556 0.65194 0.56727t0.90594 0.21167q0.36406 0 0.67733-0.11007 0.31327-0.11853 0.54187-0.3302 0.23707-0.22014 0.36407-0.51647 0.13547-0.29633 0.13547-0.6604 0-0.38947-0.13547-0.66887-0.13547-0.28787-0.3556-0.49107-0.21167-0.2032-0.47414-0.33867t-0.508-0.2286q-0.47413-0.16933-0.79587-0.3556-0.32173-0.19473-0.4826-0.4318t-0.16087-0.56727q0-0.39794 0.2794-0.6604 0.2794-0.27094 0.79587-0.27094 0.38947 0 0.65194 0.1524 0.26247 0.14394 0.4318 0.36407 0.1778 0.22013 0.27093 0.44874l0.40641-0.22861q-0.11854-0.28786-0.34714-0.5588-0.2286-0.27093-0.57573-0.44873-0.33867-0.1778-0.81281-0.1778-0.4572 0-0.82127 0.18626-0.36407 0.1778-0.56727 0.50801-0.2032 0.32173-0.2032 0.74507 0 0.381 0.14394 0.65193 0.1524 0.27094 0.38947 0.46567 0.23706 0.18627 0.508 0.32173 0.2794 0.127 0.5334 0.22014 0.33867 0.127 0.64347 0.29633 0.31327 0.16087 0.508 0.42334t0.19473 0.69427q0 0.49107-0.3302 0.8128-0.32173 0.31327-0.89747 0.31327-0.42333 0-0.72813-0.1778-0.3048-0.18627-0.51647-0.49107-0.2032-0.3048-0.34714-0.67734z"/>
    <path d="m186.55 125.72q0.58421 0 1.016-0.23706 0.44027-0.24554 0.77047-0.75354l-0.3556-0.2286q-0.26247 0.41487-0.60114 0.6096-0.3302 0.19474-0.77894 0.19474-0.42333 0-0.74506-0.20321-0.31327-0.2032-0.49107-0.57573-0.16934-0.37254-0.16934-0.87207 0-0.49107 0.1778-0.84667 0.1778-0.36407 0.49107-0.5588 0.32174-0.2032 0.75354-0.2032 0.37253 0 0.66887 0.1778 0.29633 0.1778 0.46567 0.49107 0.1778 0.31326 0.1778 0.7112 0 0.0677-0.0254 0.14393-0.0169 0.0677-0.0339 0.11007l0.18627-0.26247h-3.0311v0.381h3.3613q8e-3 -0.0423 8e-3 -0.1016 8e-3 -0.0593 8e-3 -0.11006 0-0.56727-0.2286-0.99908-0.22013-0.44026-0.62653-0.6858-0.39794-0.24553-0.93134-0.24553-0.55034 0-0.97367 0.26247-0.42334 0.254-0.6604 0.7112-0.23707 0.4572-0.23707 1.0499t0.2286 1.0583q0.23707 0.4572 0.64347 0.71967 0.4064 0.26246 0.93133 0.26246z"/>
    <path d="m189.85 121.74h-0.44027v3.8947h0.44027zm1.2954 0.51647 0.24554-0.36406q-0.13547-0.12701-0.30481-0.17781-0.16086-0.0593-0.34713-0.0593-0.3048 0-0.5588 0.21167-0.24554 0.21166-0.38947 0.57573-0.14393 0.3556-0.14393 0.82127h0.2032q0-0.3302 0.0762-0.60113 0.0762-0.27094 0.24553-0.43181 0.1778-0.16086 0.46567-0.16086 0.1524 0 0.26247 0.0508 0.11853 0.0423 0.24553 0.13546z"/>
    <path d="m191.75 121.74 1.7949 4.1233 1.7949-4.1233h-0.49954l-1.2954 3.175-1.2954-3.175z"/>
    <path d="m196.04 119.98q0 0.127 0.0931 0.22014 0.0931 0.0931 0.22013 0.0931 0.13547 0 0.22014-0.0931 0.0931-0.0931 0.0931-0.22014 0-0.13547-0.0931-0.22013-0.0847-0.0931-0.22014-0.0931-0.127 0-0.22013 0.0931-0.0931 0.0847-0.0931 0.22013zm0.0931 1.7611v3.8947h0.44027v-3.8947z"/>
    <path d="m198.07 123.69q0-0.47414 0.2032-0.83821t0.55034-0.56727q0.3556-0.21166 0.79587-0.21166 0.31326 0 0.5842 0.0931 0.27093 0.0931 0.46567 0.23707 0.2032 0.14393 0.28786 0.3048v-0.55034q-0.1778-0.2032-0.55033-0.34713-0.36407-0.1524-0.7874-0.1524-0.56727 0-1.016 0.26247-0.44873 0.26246-0.71967 0.71966-0.26247 0.45721-0.26247 1.0499 0 0.5842 0.26247 1.0499 0.27094 0.4572 0.71967 0.71967 0.44874 0.26246 1.016 0.26246 0.42333 0 0.7874-0.14393 0.37253-0.14393 0.55033-0.3556v-0.55034q-0.0847 0.1524-0.28786 0.3048-0.19474 0.14394-0.46567 0.23707-0.27094 0.0931-0.5842 0.0931-0.44027 0-0.79587-0.20321-0.34714-0.21166-0.55034-0.57573t-0.2032-0.8382z"/>
    <path d="m203.55 125.72q0.5842 0 1.016-0.23706 0.44027-0.24554 0.77047-0.75354l-0.3556-0.2286q-0.26246 0.41487-0.60113 0.6096-0.3302 0.19474-0.77894 0.19474-0.42333 0-0.74507-0.20321-0.31327-0.2032-0.49107-0.57573-0.16933-0.37254-0.16933-0.87207 0-0.49107 0.1778-0.84667 0.1778-0.36407 0.49107-0.5588 0.32173-0.2032 0.75353-0.2032 0.37254 0 0.66887 0.1778 0.29634 0.1778 0.46567 0.49107 0.1778 0.31326 0.1778 0.7112 0 0.0677-0.0254 0.14393-0.0169 0.0677-0.0339 0.11007l0.18626-0.26247h-3.031v0.381h3.3613q8e-3 -0.0423 8e-3 -0.1016 8e-3 -0.0593 8e-3 -0.11006 0-0.56727-0.2286-0.99908-0.22014-0.44026-0.62654-0.6858-0.39793-0.24553-0.93134-0.24553-0.55033 0-0.97367 0.26247-0.42333 0.254-0.6604 0.7112t-0.23707 1.0499 0.2286 1.0583q0.23707 0.4572 0.64347 0.71967 0.40641 0.26246 0.93134 0.26246z"/>
   </g>
  </g>
 </g>
</svg>
