<?xml version="1.0" encoding="UTF-8" standalone="no"?>
<svg
   version="1.1"
   width="1071.9065"
   height="300.9606"
   viewBox="0 0 1071.9065 300.9606"
   id="svg64"
   sodipodi:docname="logo-color.svg"
   xmlns:inkscape="http://www.inkscape.org/namespaces/inkscape"
   xmlns:sodipodi="http://sodipodi.sourceforge.net/DTD/sodipodi-0.dtd"
   xmlns="http://www.w3.org/2000/svg"
   xmlns:svg="http://www.w3.org/2000/svg">
  <defs
     id="defs68" />
  <sodipodi:namedview
     id="namedview66"
     pagecolor="#222222"
     bordercolor="#666666"
     borderopacity="1.0"
     inkscape:pageshadow="2"
     inkscape:pageopacity="1"
     inkscape:pagecheckerboard="0"
     showgrid="false"
     lock-margins="true"
     fit-margin-top="100"
     fit-margin-left="100"
     fit-margin-right="100"
     fit-margin-bottom="100"
     showborder="false" />
  <g
     inkscape:groupmode="layer"
     id="layer1"
     inkscape:label="logo"
     transform="translate(199.70214,-219.86188)" />
  <g
     inkscape:groupmode="layer"
     id="layer2"
     inkscape:label="text"
     transform="translate(199.70214,-219.86188)">
    <g
       id="g87541">
      <path
         d="m 696.15476,394.0815 c -0.37226,-0.41475 -1.01158,-0.45116 -1.42835,-0.0809 -0.41677,0.37125 -0.45318,1.00854 -0.0809,1.42632 0.95594,1.06823 1.9746,2.04542 3.02664,2.90728 0.18917,0.15174 0.41475,0.22862 0.64033,0.22862 0.29336,0 0.58369,-0.12544 0.78297,-0.36821 0.35506,-0.43296 0.29032,-1.06924 -0.14162,-1.42026 -0.97112,-0.79713 -1.9129,-1.69946 -2.79905,-2.69283 z m 22.44393,4.71599 c -1.223,0.53816 -2.46219,1.00854 -3.68013,1.40104 -0.53108,0.17196 -0.82342,0.73946 -0.65348,1.27155 0.13859,0.42891 0.53513,0.699 0.96302,0.699 0.10319,0 0.20738,-0.0162 0.31056,-0.0496 1.28471,-0.41172 2.58863,-0.9084 3.87536,-1.4759 0.51085,-0.22457 0.7425,-0.82039 0.51793,-1.32922 -0.22457,-0.50882 -0.82039,-0.74249 -1.33326,-0.51691 z m 53.47009,19.27768 -13.54404,-35.07856 c -0.20029,-0.51995 -0.60796,-0.93369 -1.12285,-1.14309 l -20.15675,-8.20695 c -0.45824,-0.18714 -0.96808,-0.19826 -1.43442,-0.0354 l -0.73744,0.25998 c 5.98552,-9.32273 12.80964,-21.91588 12.80964,-30.90175 -10e-4,-12.74186 -10.38488,-23.10752 -23.15406,-23.10752 -12.76816,0 -23.15506,10.36566 -23.15506,23.10651 0,11.01004 10.32317,27.42697 16.77199,36.6111 l -19.59632,-6.62079 c -0.73744,-0.24885 -1.55885,-0.0526 -2.10207,0.50781 l -24.67344,25.42505 c -0.43397,0.44611 -0.6373,1.06924 -0.5503,1.68327 0.086,0.61606 0.45116,1.15927 0.99033,1.46882 l 32.06001,18.48763 h 0.003 l 0.0283,0.0182 c 0.0212,0.0121 0.0445,0.0172 0.0657,0.0253 0.089,0.0476 0.17703,0.0951 0.27414,0.13049 0.0253,0.009 0.0526,0.0121 0.0779,0.0202 0.0354,0.0121 0.0708,0.0202 0.10723,0.0273 0.1224,0.0314 0.2448,0.0506 0.3672,0.0587 0.0243,0.001 0.0496,0.006 0.0738,0.006 0.0152,0 0.0293,0.005 0.0445,0.005 0.0405,0 0.0789,-0.0172 0.11936,-0.0202 0.13758,-0.008 0.27313,-0.0263 0.40767,-0.0627 0.0657,-0.0182 0.12746,-0.0415 0.19119,-0.0647 0.0587,-0.0223 0.12038,-0.0334 0.17804,-0.0627 l 28.08854,-13.85966 c 0.18815,0.0657 0.38541,0.11431 0.59481,0.1224 0.0263,0.002 0.0536,0.002 0.0779,0.002 0.1578,0 0.31156,-0.0223 0.45824,-0.0587 l 33.77868,13.85056 c 0.24683,0.10318 0.50984,0.15072 0.7688,0.15072 0.51894,0 1.02979,-0.19827 1.41318,-0.57559 0.58166,-0.56345 0.76779,-1.41621 0.47645,-2.16882 z m -52.18842,-54.57373 c 0,-2.75049 2.27606,-5.07409 4.97596,-5.07409 2.75757,0 5.0842,2.3236 5.0842,5.07409 0,2.69485 -2.32865,4.9709 -5.0842,4.9709 -2.6999,0 -4.97596,-2.27605 -4.97596,-4.9709 z m -4.77162,-27.0628 c -0.42284,-0.37125 -0.37024,-1.00349 0,-1.37372 0,0 3.92189,-4.65327 10.75613,-4.65327 5.61123,0 10.8057,3.91279 10.8057,9.2509 0,6.97484 -7.94495,7.18626 -7.94495,12.89562 0,0.58267 -0.47848,1.00551 -1.00855,1.00551 h -5.66687 c -0.53108,0 -1.0045,-0.42183 -1.0045,-1.00551 v -2.21739 c 0,-4.44387 7.3117,-6.39723 7.3117,-9.77894 0,-1.64078 -1.69743,-3.11971 -3.9745,-3.11971 -3.70845,0 -4.71396,3.33214 -6.03913,2.16883 z m -11.05455,65.59388 c 1.32011,0.48758 2.69991,0.8477 4.10196,1.06317 0.0526,0.008 0.10419,0.0121 0.15477,0.0121 0.27515,0 0.52501,-0.11937 0.71013,-0.30752 l -4.60067,13.03623 -27.73651,-15.9951 12.50414,-12.88551 c 0.29235,0.65348 0.70204,1.5113 1.25436,2.50872 0.18512,0.33382 0.52906,0.52198 0.88615,0.52198 0.16488,0 0.33281,-0.0405 0.48758,-0.12544 0.48859,-0.27009 0.66663,-0.88412 0.39654,-1.3717 -0.77993,-1.41116 -1.26751,-2.53806 -1.49714,-3.10555 l 7.94697,-8.19077 17.32837,5.85503 -6.69262,18.9651 c -0.0394,-0.45218 -0.36417,-0.84062 -0.83455,-0.91245 -1.2665,-0.19321 -2.51276,-0.51894 -3.70643,-0.95998 -0.52096,-0.1922 -1.10566,0.0728 -1.29988,0.59683 -0.19422,0.52096 0.0728,1.10161 0.59683,1.29482 z m 29.68987,-12.73478 c -0.38237,0.32472 -0.48353,0.88311 -0.19725,1.31202 0.0415,0.0627 0.091,0.11431 0.14263,0.16388 l -0.46128,12.10355 -24.14641,11.9154 11.08792,-31.41765 0.72429,-0.25391 c 1.38182,1.87345 2.3145,3.06003 2.48647,3.27955 0.34798,0.44003 0.87906,0.69596 1.44049,0.69596 h 0.004 c 0.56447,-0.002 1.09453,-0.25997 1.44151,-0.70102 0.26503,-0.33787 2.32562,-2.98518 5.07105,-6.9354 l 2.82332,-0.99033 z m 3.52334,13.82425 0.51489,-13.49549 c 0.16388,-0.0364 0.32775,-0.0759 0.49365,-0.10722 0.54929,-0.10319 0.9084,-0.63022 0.80623,-1.17748 -0.1052,-0.54929 -0.63122,-0.90537 -1.18152,-0.80623 -0.0142,0.002 -0.0253,0.006 -0.0395,0.0101 l 0.349,-9.14468 16.85292,6.86256 11.54112,29.88915 z m 12.09445,-14.15807 c -1.33124,-0.57559 -2.68676,-1.01765 -4.02811,-1.30797 -0.5412,-0.11836 -1.08239,0.2276 -1.20277,0.77284 -0.11735,0.54322 0.22963,1.08239 0.77588,1.20176 1.21187,0.26301 2.43993,0.66157 3.64978,1.18759 0.13252,0.0577 0.26908,0.0829 0.4016,0.0829 0.39249,0 0.76374,-0.2276 0.92863,-0.60796 0.22153,-0.51388 -0.0131,-1.10869 -0.52501,-1.32921 z m -21.32208,4.36598 c -1.19772,0.83556 -2.28415,1.55682 -3.32608,2.20524 -0.47443,0.29437 -0.61706,0.91751 -0.32269,1.39092 0.19118,0.30651 0.52298,0.47646 0.86085,0.47646 0.1831,0 0.36619,-0.0496 0.53412,-0.15275 1.07227,-0.66764 2.18905,-1.41014 3.41408,-2.2629 0.45824,-0.31865 0.56851,-0.94887 0.24885,-1.40711 -0.32067,-0.45926 -0.95089,-0.56952 -1.40913,-0.24986 z m 26.15541,-0.40463 c -0.34394,0.44003 -0.26807,1.07328 0.17399,1.41621 0.98831,0.77284 1.98371,1.64078 2.9619,2.58863 0.19524,0.18917 0.44813,0.28223 0.70305,0.28223 0.26402,0 0.52704,-0.10318 0.72733,-0.30752 0.38845,-0.40058 0.37833,-1.03889 -0.0233,-1.42734 -1.02776,-0.99135 -2.07778,-1.91087 -3.12173,-2.72418 -0.44206,-0.34495 -1.07835,-0.26807 -1.42127,0.17197 z"
         style="fill:#ffffff;fill-opacity:1"
         id="path949" />
      <text
         xml:space="preserve"
         style="font-size:64px;line-height:1.25;font-family:Orbitron;-inkscape-font-specification:Orbitron;fill:#70c85d;fill-opacity:1"
         x="-13.824837"
         y="374.14456"
         id="text4425"><tspan
           sodipodi:role="line"
           id="tspan4423"
           x="-13.824837"
           y="374.14456"
           style="font-style:normal;font-variant:normal;font-weight:normal;font-stretch:normal;font-size:64px;font-family:Jost;-inkscape-font-specification:Jost;fill:#70c85d;fill-opacity:1">KNOW WHERE YOU GO</tspan></text>
      <text
         xml:space="preserve"
         style="font-size:42.6667px;line-height:1.25;font-family:Orbitron;-inkscape-font-specification:Orbitron;fill:#70c85d;fill-opacity:1"
         x="244.48082"
         y="415.03046"
         id="text14487"><tspan
           sodipodi:role="line"
           id="tspan14485"
           x="244.48082"
           y="415.03046"
           style="font-style:normal;font-variant:normal;font-weight:300;font-stretch:normal;font-size:42.6667px;font-family:Jost;-inkscape-font-specification:'Jost Light';fill:#70c85d;fill-opacity:1">Location Based Service</tspan></text>
    </g>
    <g
       id="g87549"
       transform="translate(2.633625,-70.454414)">
      <path
         d="m 696.15476,604.14174 c -0.37226,-0.41475 -1.01158,-0.45116 -1.42835,-0.0809 -0.41677,0.37125 -0.45318,1.00854 -0.0809,1.42632 0.95594,1.06823 1.9746,2.04542 3.02664,2.90728 0.18917,0.15174 0.41475,0.22862 0.64033,0.22862 0.29336,0 0.58369,-0.12544 0.78297,-0.36821 0.35506,-0.43296 0.29032,-1.06924 -0.14162,-1.42026 -0.97112,-0.79713 -1.9129,-1.69946 -2.79905,-2.69283 z m 22.44393,4.71599 c -1.223,0.53816 -2.46219,1.00854 -3.68013,1.40104 -0.53108,0.17196 -0.82342,0.73946 -0.65348,1.27155 0.13859,0.42891 0.53513,0.699 0.96302,0.699 0.10319,0 0.20738,-0.0162 0.31056,-0.0496 1.28471,-0.41172 2.58863,-0.9084 3.87536,-1.4759 0.51085,-0.22457 0.7425,-0.82039 0.51793,-1.32922 -0.22457,-0.50882 -0.82039,-0.74249 -1.33326,-0.51691 z m 53.47009,19.27768 -13.54404,-35.07856 c -0.20029,-0.51995 -0.60796,-0.93369 -1.12285,-1.14309 l -20.15675,-8.20695 c -0.45824,-0.18714 -0.96808,-0.19826 -1.43442,-0.0354 l -0.73744,0.25998 c 5.98552,-9.32273 12.80964,-21.91588 12.80964,-30.90175 -10e-4,-12.74186 -10.38488,-23.10752 -23.15406,-23.10752 -12.76816,0 -23.15506,10.36566 -23.15506,23.10651 0,11.01004 10.32317,27.42697 16.77199,36.6111 l -19.59632,-6.62079 c -0.73744,-0.24885 -1.55885,-0.0526 -2.10207,0.50781 l -24.67344,25.42505 c -0.43397,0.44611 -0.6373,1.06924 -0.5503,1.68327 0.086,0.61606 0.45116,1.15927 0.99033,1.46882 l 32.06001,18.48763 h 0.003 l 0.0283,0.0182 c 0.0212,0.0121 0.0445,0.0172 0.0657,0.0253 0.089,0.0476 0.17703,0.0951 0.27414,0.13049 0.0253,0.009 0.0526,0.0121 0.0779,0.0202 0.0354,0.0121 0.0708,0.0202 0.10723,0.0273 0.1224,0.0314 0.2448,0.0506 0.3672,0.0587 0.0243,10e-4 0.0496,0.006 0.0738,0.006 0.0152,0 0.0293,0.005 0.0445,0.005 0.0405,0 0.0789,-0.0172 0.11936,-0.0202 0.13758,-0.008 0.27313,-0.0263 0.40767,-0.0627 0.0657,-0.0182 0.12746,-0.0415 0.19119,-0.0647 0.0587,-0.0223 0.12038,-0.0334 0.17804,-0.0627 l 28.08854,-13.85966 c 0.18815,0.0657 0.38541,0.11431 0.59481,0.1224 0.0263,0.002 0.0536,0.002 0.0779,0.002 0.1578,0 0.31156,-0.0223 0.45824,-0.0587 l 33.77868,13.85056 c 0.24683,0.10318 0.50984,0.15072 0.7688,0.15072 0.51894,0 1.02979,-0.19827 1.41318,-0.57559 0.58166,-0.56345 0.76779,-1.41621 0.47645,-2.16882 z m -52.18842,-54.57373 c 0,-2.75049 2.27606,-5.07409 4.97596,-5.07409 2.75757,0 5.0842,2.3236 5.0842,5.07409 0,2.69485 -2.32865,4.9709 -5.0842,4.9709 -2.6999,0 -4.97596,-2.27605 -4.97596,-4.9709 z m -4.77162,-27.0628 c -0.42284,-0.37125 -0.37024,-1.00349 0,-1.37372 0,0 3.92189,-4.65327 10.75613,-4.65327 5.61123,0 10.8057,3.91279 10.8057,9.2509 0,6.97484 -7.94495,7.18626 -7.94495,12.89562 0,0.58267 -0.47848,1.00551 -1.00855,1.00551 h -5.66687 c -0.53108,0 -1.0045,-0.42183 -1.0045,-1.00551 v -2.21739 c 0,-4.44387 7.3117,-6.39723 7.3117,-9.77894 0,-1.64078 -1.69743,-3.11971 -3.9745,-3.11971 -3.70845,0 -4.71396,3.33214 -6.03913,2.16883 z m -11.05455,65.59388 c 1.32011,0.48758 2.69991,0.8477 4.10196,1.06317 0.0526,0.008 0.10419,0.0121 0.15477,0.0121 0.27515,0 0.52501,-0.11937 0.71013,-0.30752 l -4.60067,13.03623 -27.73651,-15.9951 12.50414,-12.88551 c 0.29235,0.65348 0.70204,1.5113 1.25436,2.50872 0.18512,0.33382 0.52906,0.52198 0.88615,0.52198 0.16488,0 0.33281,-0.0405 0.48758,-0.12544 0.48859,-0.27009 0.66663,-0.88412 0.39654,-1.3717 -0.77993,-1.41116 -1.26751,-2.53806 -1.49714,-3.10555 l 7.94697,-8.19077 17.32837,5.85503 -6.69262,18.9651 c -0.0394,-0.45218 -0.36417,-0.84062 -0.83455,-0.91245 -1.2665,-0.19321 -2.51276,-0.51894 -3.70643,-0.95998 -0.52096,-0.1922 -1.10566,0.0728 -1.29988,0.59683 -0.19422,0.52096 0.0728,1.10161 0.59683,1.29482 z m 29.68987,-12.73478 c -0.38237,0.32472 -0.48353,0.88311 -0.19725,1.31202 0.0415,0.0627 0.091,0.11431 0.14263,0.16388 l -0.46128,12.10355 -24.14641,11.9154 11.08792,-31.41765 0.72429,-0.25391 c 1.38182,1.87345 2.3145,3.06003 2.48647,3.27955 0.34798,0.44003 0.87906,0.69596 1.44049,0.69596 h 0.004 c 0.56447,-0.002 1.09453,-0.25997 1.44151,-0.70102 0.26503,-0.33787 2.32562,-2.98518 5.07105,-6.9354 l 2.82332,-0.99033 z m 3.52334,13.82425 0.51489,-13.49549 c 0.16388,-0.0364 0.32775,-0.0759 0.49365,-0.10722 0.54929,-0.10319 0.9084,-0.63022 0.80623,-1.17748 -0.1052,-0.54929 -0.63122,-0.90537 -1.18152,-0.80623 -0.0142,0.002 -0.0253,0.006 -0.0395,0.0101 l 0.349,-9.14468 16.85292,6.86256 11.54112,29.88915 z m 12.09445,-14.15807 c -1.33124,-0.57559 -2.68676,-1.01765 -4.02811,-1.30797 -0.5412,-0.11836 -1.08239,0.2276 -1.20277,0.77284 -0.11735,0.54322 0.22963,1.08239 0.77588,1.20176 1.21187,0.26301 2.43993,0.66157 3.64978,1.18759 0.13252,0.0577 0.26908,0.0829 0.4016,0.0829 0.39249,0 0.76374,-0.2276 0.92863,-0.60796 0.22153,-0.51388 -0.0131,-1.10869 -0.52501,-1.32921 z m -21.32208,4.36598 c -1.19772,0.83556 -2.28415,1.55682 -3.32608,2.20524 -0.47443,0.29437 -0.61706,0.91751 -0.32269,1.39092 0.19118,0.30651 0.52298,0.47646 0.86085,0.47646 0.1831,0 0.36619,-0.0496 0.53412,-0.15275 1.07227,-0.66764 2.18905,-1.41014 3.41408,-2.2629 0.45824,-0.31865 0.56851,-0.94887 0.24885,-1.40711 -0.32067,-0.45926 -0.95089,-0.56952 -1.40913,-0.24986 z m 26.15541,-0.40463 c -0.34394,0.44003 -0.26807,1.07328 0.17399,1.41621 0.98831,0.77284 1.98371,1.64078 2.9619,2.58863 0.19524,0.18917 0.44813,0.28223 0.70305,0.28223 0.26402,0 0.52704,-0.10318 0.72733,-0.30752 0.38845,-0.40058 0.37833,-1.03889 -0.0233,-1.42734 -1.02776,-0.99135 -2.07778,-1.91087 -3.12173,-2.72418 -0.44206,-0.34495 -1.07835,-0.26807 -1.42127,0.17197 z"
         style="fill:#ffffff;fill-opacity:1"
         id="path77935" />
      <text
         xml:space="preserve"
         style="font-size:64px;line-height:1.25;font-family:Orbitron;-inkscape-font-specification:Orbitron;fill:#1bb0d1;fill-opacity:1"
         x="-13.824837"
         y="584.20483"
         id="text77939"><tspan
           sodipodi:role="line"
           id="tspan77937"
           x="-13.824837"
           y="584.20483"
           style="font-style:normal;font-variant:normal;font-weight:normal;font-stretch:normal;font-size:64px;font-family:Jost;-inkscape-font-specification:Jost;fill:#1bb0d1;fill-opacity:1">KNOW WHERE YOU GO</tspan></text>
      <text
         xml:space="preserve"
         style="font-size:42.6667px;line-height:1.25;font-family:Orbitron;-inkscape-font-specification:Orbitron;fill:#1bb0d1;fill-opacity:1"
         x="244.48082"
         y="625.0907"
         id="text77943"><tspan
           sodipodi:role="line"
           id="tspan77941"
           x="244.48082"
           y="625.0907"
           style="font-style:normal;font-variant:normal;font-weight:300;font-stretch:normal;font-size:42.6667px;font-family:Jost;-inkscape-font-specification:'Jost Light';fill:#1bb0d1;fill-opacity:1">Location Based Service</tspan></text>
    </g>
    <g
       id="g91488"
       transform="translate(2.633625,-113.57859)">
      <path
         d="m 696.15476,786.87168 c -0.37226,-0.41475 -1.01158,-0.45116 -1.42835,-0.0809 -0.41677,0.37125 -0.45318,1.00854 -0.0809,1.42632 0.95594,1.06823 1.9746,2.04542 3.02664,2.90728 0.18917,0.15174 0.41475,0.22862 0.64033,0.22862 0.29336,0 0.58369,-0.12544 0.78297,-0.36821 0.35506,-0.43296 0.29032,-1.06924 -0.14162,-1.42026 -0.97112,-0.79713 -1.9129,-1.69946 -2.79905,-2.69283 z m 22.44393,4.71599 c -1.223,0.53816 -2.46219,1.00854 -3.68013,1.40104 -0.53108,0.17196 -0.82342,0.73946 -0.65348,1.27155 0.13859,0.42891 0.53513,0.699 0.96302,0.699 0.10319,0 0.20738,-0.0162 0.31056,-0.0496 1.28471,-0.41172 2.58863,-0.9084 3.87536,-1.4759 0.51085,-0.22457 0.7425,-0.82039 0.51793,-1.32922 -0.22457,-0.50882 -0.82039,-0.74249 -1.33326,-0.51691 z m 53.47009,19.27768 -13.54404,-35.07856 c -0.20029,-0.51995 -0.60796,-0.93369 -1.12285,-1.14309 l -20.15675,-8.20695 c -0.45824,-0.18714 -0.96808,-0.19826 -1.43442,-0.0354 l -0.73744,0.25998 c 5.98552,-9.32273 12.80964,-21.91588 12.80964,-30.90175 -10e-4,-12.74186 -10.38488,-23.10752 -23.15406,-23.10752 -12.76816,0 -23.15506,10.36566 -23.15506,23.10651 0,11.01004 10.32317,27.42697 16.77199,36.6111 l -19.59632,-6.62079 c -0.73744,-0.24885 -1.55885,-0.0526 -2.10207,0.50781 l -24.67344,25.42505 c -0.43397,0.44611 -0.6373,1.06924 -0.5503,1.68327 0.086,0.61606 0.45116,1.15927 0.99033,1.46882 l 32.06001,18.48763 h 0.003 l 0.0283,0.0182 c 0.0212,0.0121 0.0445,0.0172 0.0657,0.0253 0.089,0.0476 0.17703,0.0951 0.27414,0.13049 0.0253,0.009 0.0526,0.0121 0.0779,0.0202 0.0354,0.0121 0.0708,0.0202 0.10723,0.0273 0.1224,0.0314 0.2448,0.0506 0.3672,0.0587 0.0243,0.001 0.0496,0.006 0.0738,0.006 0.0152,0 0.0293,0.005 0.0445,0.005 0.0405,0 0.0789,-0.0172 0.11936,-0.0202 0.13758,-0.008 0.27313,-0.0263 0.40767,-0.0627 0.0657,-0.0182 0.12746,-0.0415 0.19119,-0.0647 0.0587,-0.0223 0.12038,-0.0334 0.17804,-0.0627 l 28.08854,-13.85966 c 0.18815,0.0657 0.38541,0.11431 0.59481,0.1224 0.0263,0.002 0.0536,0.002 0.0779,0.002 0.1578,0 0.31156,-0.0223 0.45824,-0.0587 l 33.77868,13.85056 c 0.24683,0.10318 0.50984,0.15072 0.7688,0.15072 0.51894,0 1.02979,-0.19827 1.41318,-0.57559 0.58166,-0.56345 0.76779,-1.41621 0.47645,-2.16882 z m -52.18842,-54.57373 c 0,-2.75049 2.27606,-5.07409 4.97596,-5.07409 2.75757,0 5.0842,2.3236 5.0842,5.07409 0,2.69485 -2.32865,4.9709 -5.0842,4.9709 -2.6999,0 -4.97596,-2.27605 -4.97596,-4.9709 z m -4.77162,-27.0628 c -0.42284,-0.37125 -0.37024,-1.00349 0,-1.37372 0,0 3.92189,-4.65327 10.75613,-4.65327 5.61123,0 10.8057,3.91279 10.8057,9.2509 0,6.97484 -7.94495,7.18626 -7.94495,12.89562 0,0.58267 -0.47848,1.00551 -1.00855,1.00551 h -5.66687 c -0.53108,0 -1.0045,-0.42183 -1.0045,-1.00551 v -2.21739 c 0,-4.44387 7.3117,-6.39723 7.3117,-9.77894 0,-1.64078 -1.69743,-3.11971 -3.9745,-3.11971 -3.70845,0 -4.71396,3.33214 -6.03913,2.16883 z m -11.05455,65.59388 c 1.32011,0.48758 2.69991,0.8477 4.10196,1.06317 0.0526,0.008 0.10419,0.0121 0.15477,0.0121 0.27515,0 0.52501,-0.11937 0.71013,-0.30752 l -4.60067,13.03623 -27.73651,-15.9951 12.50414,-12.88551 c 0.29235,0.65348 0.70204,1.5113 1.25436,2.50872 0.18512,0.33382 0.52906,0.52198 0.88615,0.52198 0.16488,0 0.33281,-0.0405 0.48758,-0.12544 0.48859,-0.27009 0.66663,-0.88412 0.39654,-1.3717 -0.77993,-1.41116 -1.26751,-2.53806 -1.49714,-3.10555 l 7.94697,-8.19077 17.32837,5.85503 -6.69262,18.9651 c -0.0394,-0.45218 -0.36417,-0.84062 -0.83455,-0.91245 -1.2665,-0.19321 -2.51276,-0.51894 -3.70643,-0.95998 -0.52096,-0.1922 -1.10566,0.0728 -1.29988,0.59683 -0.19422,0.52096 0.0728,1.10161 0.59683,1.29482 z m 29.68987,-12.73478 c -0.38237,0.32472 -0.48353,0.88311 -0.19725,1.31202 0.0415,0.0627 0.091,0.11431 0.14263,0.16388 l -0.46128,12.10355 -24.14641,11.9154 11.08792,-31.41765 0.72429,-0.25391 c 1.38182,1.87345 2.3145,3.06003 2.48647,3.27955 0.34798,0.44003 0.87906,0.69596 1.44049,0.69596 h 0.004 c 0.56447,-0.002 1.09453,-0.25997 1.44151,-0.70102 0.26503,-0.33787 2.32562,-2.98518 5.07105,-6.9354 l 2.82332,-0.99033 z m 3.52334,13.82425 0.51489,-13.49549 c 0.16388,-0.0364 0.32775,-0.0759 0.49365,-0.10722 0.54929,-0.10319 0.9084,-0.63022 0.80623,-1.17748 -0.1052,-0.54929 -0.63122,-0.90537 -1.18152,-0.80623 -0.0142,0.002 -0.0253,0.006 -0.0395,0.0101 l 0.349,-9.14468 16.85292,6.86256 11.54112,29.88915 z m 12.09445,-14.15807 c -1.33124,-0.57559 -2.68676,-1.01765 -4.02811,-1.30797 -0.5412,-0.11836 -1.08239,0.2276 -1.20277,0.77284 -0.11735,0.54322 0.22963,1.08239 0.77588,1.20176 1.21187,0.26301 2.43993,0.66157 3.64978,1.18759 0.13252,0.0577 0.26908,0.0829 0.4016,0.0829 0.39249,0 0.76374,-0.2276 0.92863,-0.60796 0.22153,-0.51388 -0.0131,-1.10869 -0.52501,-1.32921 z m -21.32208,4.36598 c -1.19772,0.83556 -2.28415,1.55682 -3.32608,2.20524 -0.47443,0.29437 -0.61706,0.91751 -0.32269,1.39092 0.19118,0.30651 0.52298,0.47646 0.86085,0.47646 0.1831,0 0.36619,-0.0496 0.53412,-0.15275 1.07227,-0.66764 2.18905,-1.41014 3.41408,-2.2629 0.45824,-0.31865 0.56851,-0.94887 0.24885,-1.40711 -0.32067,-0.45926 -0.95089,-0.56952 -1.40913,-0.24986 z m 26.15541,-0.40463 c -0.34394,0.44003 -0.26807,1.07328 0.17399,1.41621 0.98831,0.77284 1.98371,1.64078 2.9619,2.58863 0.19524,0.18917 0.44813,0.28223 0.70305,0.28223 0.26402,0 0.52704,-0.10318 0.72733,-0.30752 0.38845,-0.40058 0.37833,-1.03889 -0.0233,-1.42734 -1.02776,-0.99135 -2.07778,-1.91087 -3.12173,-2.72418 -0.44206,-0.34495 -1.07835,-0.26807 -1.42127,0.17197 z"
         style="fill:#ffffff;fill-opacity:1"
         id="path78163" />
      <text
         xml:space="preserve"
         style="font-size:64px;line-height:1.25;font-family:Orbitron;-inkscape-font-specification:Orbitron;fill:#d1301b;fill-opacity:1"
         x="-13.824837"
         y="766.93475"
         id="text78167"><tspan
           sodipodi:role="line"
           id="tspan78165"
           x="-13.824837"
           y="766.93475"
           style="font-style:normal;font-variant:normal;font-weight:normal;font-stretch:normal;font-size:64px;font-family:Jost;-inkscape-font-specification:Jost;fill:#d1301b;fill-opacity:1">KNOW WHERE YOU GO</tspan></text>
      <text
         xml:space="preserve"
         style="font-size:42.6667px;line-height:1.25;font-family:Orbitron;-inkscape-font-specification:Orbitron;fill:#d1301b;fill-opacity:1"
         x="244.48082"
         y="807.82062"
         id="text78171"><tspan
           sodipodi:role="line"
           id="tspan78169"
           x="244.48082"
           y="807.82062"
           style="font-style:normal;font-variant:normal;font-weight:300;font-stretch:normal;font-size:42.6667px;font-family:Jost;-inkscape-font-specification:'Jost Light';fill:#d1301b;fill-opacity:1">Location Based Service</tspan></text>
    </g>
    <g
       id="g91576"
       transform="translate(6.0927579,-173.43533)">
      <path
         d="m 696.15476,986.33508 c -0.37226,-0.41475 -1.01158,-0.45116 -1.42835,-0.0809 -0.41677,0.37125 -0.45318,1.00854 -0.0809,1.42632 0.95594,1.06823 1.9746,2.04542 3.02664,2.90728 0.18917,0.15174 0.41475,0.22862 0.64033,0.22862 0.29336,0 0.58369,-0.12544 0.78297,-0.36821 0.35506,-0.43296 0.29032,-1.06924 -0.14162,-1.42026 -0.97112,-0.79713 -1.9129,-1.69946 -2.79905,-2.69283 z m 22.44393,4.71599 c -1.223,0.53816 -2.46219,1.00854 -3.68013,1.40104 -0.53108,0.17196 -0.82342,0.73946 -0.65348,1.27155 0.13859,0.42891 0.53513,0.699 0.96302,0.699 0.10319,0 0.20738,-0.0162 0.31056,-0.0496 1.28471,-0.41172 2.58863,-0.9084 3.87536,-1.4759 0.51085,-0.22457 0.7425,-0.82039 0.51793,-1.32922 -0.22457,-0.50882 -0.82039,-0.74249 -1.33326,-0.51691 z m 53.47009,19.27773 -13.54404,-35.07861 c -0.20029,-0.51995 -0.60796,-0.93369 -1.12285,-1.14309 l -20.15675,-8.20695 c -0.45824,-0.18714 -0.96808,-0.19826 -1.43442,-0.0354 l -0.73744,0.25998 c 5.98552,-9.32273 12.80964,-21.91588 12.80964,-30.90175 -10e-4,-12.74186 -10.38488,-23.10752 -23.15406,-23.10752 -12.76816,0 -23.15506,10.36566 -23.15506,23.10651 0,11.01004 10.32317,27.42697 16.77199,36.6111 l -19.59632,-6.62079 c -0.73744,-0.24885 -1.55885,-0.0526 -2.10207,0.50781 l -24.67344,25.42505 c -0.43397,0.44611 -0.6373,1.06924 -0.5503,1.68327 0.086,0.61606 0.45116,1.15927 0.99033,1.46882 l 32.06001,18.48767 h 0.003 l 0.0283,0.018 c 0.0212,0.012 0.0445,0.017 0.0657,0.025 0.089,0.048 0.17703,0.095 0.27414,0.1305 0.0253,0.01 0.0526,0.012 0.0779,0.02 0.0354,0.012 0.0708,0.02 0.10723,0.027 0.1224,0.031 0.2448,0.051 0.3672,0.059 0.0243,10e-4 0.0496,0.01 0.0738,0.01 0.0152,0 0.0293,0 0.0445,0 0.0405,0 0.0789,-0.017 0.11936,-0.02 0.13758,-0.01 0.27313,-0.026 0.40767,-0.063 0.0657,-0.018 0.12746,-0.042 0.19119,-0.065 0.0587,-0.022 0.12038,-0.033 0.17804,-0.063 l 28.08854,-13.85971 c 0.18815,0.0657 0.38541,0.11431 0.59481,0.1224 0.0263,0.002 0.0536,0.002 0.0779,0.002 0.1578,0 0.31156,-0.0223 0.45824,-0.0587 L 769.4102,1012.92 c 0.24683,0.1031 0.50984,0.1507 0.7688,0.1507 0.51894,0 1.02979,-0.1983 1.41318,-0.5756 0.58166,-0.5635 0.76779,-1.4162 0.47645,-2.1688 z m -52.18842,-54.57378 c 0,-2.75049 2.27606,-5.07409 4.97596,-5.07409 2.75757,0 5.0842,2.3236 5.0842,5.07409 0,2.69485 -2.32865,4.9709 -5.0842,4.9709 -2.6999,0 -4.97596,-2.27605 -4.97596,-4.9709 z m -4.77162,-27.0628 c -0.42284,-0.37125 -0.37024,-1.00349 0,-1.37372 0,0 3.92189,-4.65327 10.75613,-4.65327 5.61123,0 10.8057,3.91279 10.8057,9.2509 0,6.97484 -7.94495,7.18626 -7.94495,12.89562 0,0.58267 -0.47848,1.00551 -1.00855,1.00551 h -5.66687 c -0.53108,0 -1.0045,-0.42183 -1.0045,-1.00551 v -2.21739 c 0,-4.44387 7.3117,-6.39723 7.3117,-9.77894 0,-1.64078 -1.69743,-3.11971 -3.9745,-3.11971 -3.70845,0 -4.71396,3.33214 -6.03913,2.16883 z m -11.05455,65.59388 c 1.32011,0.48758 2.69991,0.8477 4.10196,1.06317 0.0526,0.008 0.10419,0.0121 0.15477,0.0121 0.27515,0 0.52501,-0.11937 0.71013,-0.30752 l -4.60067,13.03625 -27.73651,-15.99512 12.50414,-12.88551 c 0.29235,0.65348 0.70204,1.5113 1.25436,2.50872 0.18512,0.33382 0.52906,0.52198 0.88615,0.52198 0.16488,0 0.33281,-0.0405 0.48758,-0.12544 0.48859,-0.27009 0.66663,-0.88412 0.39654,-1.3717 -0.77993,-1.41116 -1.26751,-2.53806 -1.49714,-3.10555 l 7.94697,-8.19077 17.32837,5.85503 -6.69262,18.9651 c -0.0394,-0.45218 -0.36417,-0.84062 -0.83455,-0.91245 -1.2665,-0.19321 -2.51276,-0.51894 -3.70643,-0.95998 -0.52096,-0.1922 -1.10566,0.0728 -1.29988,0.59683 -0.19422,0.52096 0.0728,1.10161 0.59683,1.29482 z m 29.68987,-12.73478 c -0.38237,0.32472 -0.48353,0.88311 -0.19725,1.31202 0.0415,0.0627 0.091,0.11431 0.14263,0.16388 l -0.46128,12.10355 -24.14641,11.91543 11.08792,-31.41768 0.72429,-0.25391 c 1.38182,1.87345 2.3145,3.06003 2.48647,3.27955 0.34798,0.44003 0.87906,0.69596 1.44049,0.69596 h 0.004 c 0.56447,-0.002 1.09453,-0.25997 1.44151,-0.70102 0.26503,-0.33787 2.32562,-2.98518 5.07105,-6.9354 l 2.82332,-0.99033 z m 3.52334,13.82425 0.51489,-13.49549 c 0.16388,-0.0364 0.32775,-0.0759 0.49365,-0.10722 0.54929,-0.10319 0.9084,-0.63022 0.80623,-1.17748 -0.1052,-0.54929 -0.63122,-0.90537 -1.18152,-0.80623 -0.0142,0.002 -0.0253,0.006 -0.0395,0.0101 l 0.349,-9.14468 16.85292,6.86256 11.54112,29.88917 z m 12.09445,-14.15807 c -1.33124,-0.57559 -2.68676,-1.01765 -4.02811,-1.30797 -0.5412,-0.11836 -1.08239,0.2276 -1.20277,0.77284 -0.11735,0.54322 0.22963,1.08239 0.77588,1.20176 1.21187,0.26301 2.43993,0.66157 3.64978,1.18759 0.13252,0.0577 0.26908,0.0829 0.4016,0.0829 0.39249,0 0.76374,-0.2276 0.92863,-0.60796 0.22153,-0.51388 -0.0131,-1.10869 -0.52501,-1.32921 z m -21.32208,4.36598 c -1.19772,0.83556 -2.28415,1.55682 -3.32608,2.20524 -0.47443,0.29437 -0.61706,0.91751 -0.32269,1.39092 0.19118,0.30651 0.52298,0.47646 0.86085,0.47646 0.1831,0 0.36619,-0.0496 0.53412,-0.15275 1.07227,-0.66764 2.18905,-1.41014 3.41408,-2.2629 0.45824,-0.31865 0.56851,-0.94887 0.24885,-1.40711 -0.32067,-0.45926 -0.95089,-0.56952 -1.40913,-0.24986 z m 26.15541,-0.40463 c -0.34394,0.44003 -0.26807,1.07328 0.17399,1.41621 0.98831,0.77284 1.98371,1.64078 2.9619,2.58863 0.19524,0.18917 0.44813,0.28223 0.70305,0.28223 0.26402,0 0.52704,-0.10318 0.72733,-0.30752 0.38845,-0.40058 0.37833,-1.03889 -0.0233,-1.42734 -1.02776,-0.99135 -2.07778,-1.91087 -3.12173,-2.72418 -0.44206,-0.34495 -1.07835,-0.26807 -1.42127,0.17197 z"
         style="fill:#ffffff;fill-opacity:1"
         id="path78929" />
      <text
         xml:space="preserve"
         style="font-size:64px;line-height:1.25;font-family:Orbitron;-inkscape-font-specification:Orbitron;fill:#d1d11b;fill-opacity:1"
         x="-13.824837"
         y="966.39813"
         id="text78933"><tspan
           sodipodi:role="line"
           id="tspan78931"
           x="-13.824837"
           y="966.39813"
           style="font-style:normal;font-variant:normal;font-weight:normal;font-stretch:normal;font-size:64px;font-family:Jost;-inkscape-font-specification:Jost;fill:#d1d11b;fill-opacity:1">KNOW WHERE YOU GO</tspan></text>
      <text
         xml:space="preserve"
         style="font-size:42.6667px;line-height:1.25;font-family:Orbitron;-inkscape-font-specification:Orbitron;fill:#d1d11b;fill-opacity:1"
         x="244.48082"
         y="1007.284"
         id="text78937"><tspan
           sodipodi:role="line"
           id="tspan78935"
           x="244.48082"
           y="1007.284"
           style="font-style:normal;font-variant:normal;font-weight:300;font-stretch:normal;font-size:42.6667px;font-family:Jost;-inkscape-font-specification:'Jost Light';fill:#d1d11b;fill-opacity:1">Location Based Service</tspan></text>
    </g>
    <g
       id="g91584"
       transform="translate(1.730654,-215.99024)">
      <path
         d="m 696.15476,1168.4954 c -0.37226,-0.4147 -1.01158,-0.4511 -1.42835,-0.081 -0.41677,0.3713 -0.45318,1.0086 -0.0809,1.4263 0.95594,1.0683 1.9746,2.0455 3.02664,2.9073 0.18917,0.1518 0.41475,0.2286 0.64033,0.2286 0.29336,0 0.58369,-0.1254 0.78297,-0.3682 0.35506,-0.4329 0.29032,-1.0692 -0.14162,-1.4202 -0.97112,-0.7972 -1.9129,-1.6995 -2.79905,-2.6929 z m 22.44393,4.716 c -1.223,0.5382 -2.46219,1.0086 -3.68013,1.4011 -0.53108,0.1719 -0.82342,0.7394 -0.65348,1.2715 0.13859,0.4289 0.53513,0.699 0.96302,0.699 0.10319,0 0.20738,-0.016 0.31056,-0.05 1.28471,-0.4117 2.58863,-0.9084 3.87536,-1.4759 0.51085,-0.2246 0.7425,-0.8204 0.51793,-1.3292 -0.22457,-0.5088 -0.82039,-0.7425 -1.33326,-0.5169 z m 53.47009,19.2777 -13.54404,-35.0786 c -0.20029,-0.5199 -0.60796,-0.9337 -1.12285,-1.1431 l -20.15675,-8.2069 c -0.45824,-0.1871 -0.96808,-0.1983 -1.43442,-0.035 l -0.73744,0.26 c 5.98552,-9.3228 12.80964,-21.9159 12.80964,-30.9018 -10e-4,-12.7418 -10.38488,-23.1075 -23.15406,-23.1075 -12.76816,0 -23.15506,10.3657 -23.15506,23.1065 0,11.0101 10.32317,27.427 16.77199,36.6111 l -19.59632,-6.6208 c -0.73744,-0.2488 -1.55885,-0.053 -2.10207,0.5078 l -24.67344,25.4251 c -0.43397,0.4461 -0.6373,1.0692 -0.5503,1.6833 0.086,0.616 0.45116,1.1592 0.99033,1.4688 l 32.06001,18.4876 h 0.003 l 0.0283,0.018 c 0.0212,0.012 0.0445,0.017 0.0657,0.025 0.089,0.048 0.17703,0.095 0.27414,0.1305 0.0253,0.01 0.0526,0.012 0.0779,0.02 0.0354,0.012 0.0708,0.02 0.10723,0.027 0.1224,0.031 0.2448,0.051 0.3672,0.059 0.0243,10e-4 0.0496,0.01 0.0738,0.01 0.0152,0 0.0293,0 0.0445,0 0.0405,0 0.0789,-0.017 0.11936,-0.02 0.13758,-0.01 0.27313,-0.026 0.40767,-0.063 0.0657,-0.018 0.12746,-0.042 0.19119,-0.065 0.0587,-0.022 0.12038,-0.033 0.17804,-0.063 l 28.08854,-13.8597 c 0.18815,0.066 0.38541,0.1143 0.59481,0.1224 0.0263,0 0.0536,0 0.0779,0 0.1578,0 0.31156,-0.022 0.45824,-0.059 l 33.77868,13.8506 c 0.24683,0.1031 0.50984,0.1507 0.7688,0.1507 0.51894,0 1.02979,-0.1983 1.41318,-0.5756 0.58166,-0.5635 0.76779,-1.4162 0.47645,-2.1688 z m -52.18842,-54.5737 c 0,-2.7505 2.27606,-5.0741 4.97596,-5.0741 2.75757,0 5.0842,2.3236 5.0842,5.0741 0,2.6948 -2.32865,4.9709 -5.0842,4.9709 -2.6999,0 -4.97596,-2.2761 -4.97596,-4.9709 z m -4.77162,-27.0628 c -0.42284,-0.3713 -0.37024,-1.0035 0,-1.3738 0,0 3.92189,-4.6532 10.75613,-4.6532 5.61123,0 10.8057,3.9128 10.8057,9.2509 0,6.9748 -7.94495,7.1862 -7.94495,12.8956 0,0.5827 -0.47848,1.0055 -1.00855,1.0055 h -5.66687 c -0.53108,0 -1.0045,-0.4218 -1.0045,-1.0055 v -2.2174 c 0,-4.4439 7.3117,-6.3972 7.3117,-9.7789 0,-1.6408 -1.69743,-3.1197 -3.9745,-3.1197 -3.70845,0 -4.71396,3.3321 -6.03913,2.1688 z m -11.05455,65.5938 c 1.32011,0.4876 2.69991,0.8477 4.10196,1.0632 0.0526,0.01 0.10419,0.012 0.15477,0.012 0.27515,0 0.52501,-0.1194 0.71013,-0.3075 l -4.60067,13.0362 -27.73651,-15.9951 12.50414,-12.8855 c 0.29235,0.6535 0.70204,1.5113 1.25436,2.5087 0.18512,0.3339 0.52906,0.522 0.88615,0.522 0.16488,0 0.33281,-0.041 0.48758,-0.1254 0.48859,-0.2701 0.66663,-0.8841 0.39654,-1.3717 -0.77993,-1.4112 -1.26751,-2.5381 -1.49714,-3.1056 l 7.94697,-8.1907 17.32837,5.855 -6.69262,18.9651 c -0.0394,-0.4522 -0.36417,-0.8406 -0.83455,-0.9125 -1.2665,-0.1932 -2.51276,-0.5189 -3.70643,-0.9599 -0.52096,-0.1922 -1.10566,0.073 -1.29988,0.5968 -0.19422,0.5209 0.0728,1.1016 0.59683,1.2948 z m 29.68987,-12.7347 c -0.38237,0.3247 -0.48353,0.8831 -0.19725,1.312 0.0415,0.063 0.091,0.1143 0.14263,0.1639 l -0.46128,12.1035 -24.14641,11.9154 11.08792,-31.4176 0.72429,-0.2539 c 1.38182,1.8734 2.3145,3.06 2.48647,3.2795 0.34798,0.44 0.87906,0.696 1.44049,0.696 h 0.004 c 0.56447,0 1.09453,-0.26 1.44151,-0.7011 0.26503,-0.3378 2.32562,-2.9851 5.07105,-6.9354 l 2.82332,-0.9903 z m 3.52334,13.8242 0.51489,-13.4955 c 0.16388,-0.036 0.32775,-0.076 0.49365,-0.1072 0.54929,-0.1032 0.9084,-0.6302 0.80623,-1.1775 -0.1052,-0.5493 -0.63122,-0.9053 -1.18152,-0.8062 -0.0142,0 -0.0253,0.01 -0.0395,0.01 l 0.349,-9.1447 16.85292,6.8626 11.54112,29.8891 z m 12.09445,-14.1581 c -1.33124,-0.5755 -2.68676,-1.0176 -4.02811,-1.3079 -0.5412,-0.1184 -1.08239,0.2276 -1.20277,0.7728 -0.11735,0.5432 0.22963,1.0824 0.77588,1.2018 1.21187,0.263 2.43993,0.6615 3.64978,1.1876 0.13252,0.058 0.26908,0.083 0.4016,0.083 0.39249,0 0.76374,-0.2276 0.92863,-0.608 0.22153,-0.5139 -0.0131,-1.1087 -0.52501,-1.3292 z m -21.32208,4.366 c -1.19772,0.8356 -2.28415,1.5568 -3.32608,2.2053 -0.47443,0.2943 -0.61706,0.9175 -0.32269,1.3909 0.19118,0.3065 0.52298,0.4764 0.86085,0.4764 0.1831,0 0.36619,-0.05 0.53412,-0.1527 1.07227,-0.6676 2.18905,-1.4101 3.41408,-2.2629 0.45824,-0.3187 0.56851,-0.9489 0.24885,-1.4071 -0.32067,-0.4593 -0.95089,-0.5695 -1.40913,-0.2499 z m 26.15541,-0.4046 c -0.34394,0.44 -0.26807,1.0733 0.17399,1.4162 0.98831,0.7728 1.98371,1.6408 2.9619,2.5886 0.19524,0.1892 0.44813,0.2823 0.70305,0.2823 0.26402,0 0.52704,-0.1032 0.72733,-0.3076 0.38845,-0.4005 0.37833,-1.0388 -0.0233,-1.4273 -1.02776,-0.9913 -2.07778,-1.9109 -3.12173,-2.7242 -0.44206,-0.3449 -1.07835,-0.268 -1.42127,0.172 z"
         style="fill:#ffffff;fill-opacity:1"
         id="path79801" />
      <text
         xml:space="preserve"
         style="font-size:64px;line-height:1.25;font-family:Orbitron;-inkscape-font-specification:Orbitron;fill:#ffffff;fill-opacity:1"
         x="-13.824837"
         y="1148.5585"
         id="text79805"><tspan
           sodipodi:role="line"
           id="tspan79803"
           x="-13.824837"
           y="1148.5585"
           style="font-style:normal;font-variant:normal;font-weight:normal;font-stretch:normal;font-size:64px;font-family:Jost;-inkscape-font-specification:Jost;fill:#ffffff;fill-opacity:1">KNOW WHERE YOU GO</tspan></text>
      <text
         xml:space="preserve"
         style="font-size:42.6667px;line-height:1.25;font-family:Orbitron;-inkscape-font-specification:Orbitron;fill:#ffffff;fill-opacity:1"
         x="244.48082"
         y="1189.4443"
         id="text79809"><tspan
           sodipodi:role="line"
           id="tspan79807"
           x="244.48082"
           y="1189.4443"
           style="font-style:normal;font-variant:normal;font-weight:300;font-stretch:normal;font-size:42.6667px;font-family:Jost;-inkscape-font-specification:'Jost Light';fill:#ffffff;fill-opacity:1">Location Based Service</tspan></text>
    </g>
  </g>
</svg>
