<svg xmlns="http://www.w3.org/2000/svg" version="1.1" xmlns:xlink="http://www.w3.org/1999/xlink" xmlns:svgjs="http://svgjs.dev/svgjs" width="1000" height="1000" viewBox="0 0 1000 1000"><rect width="1000" height="1000" fill="#333333"></rect><g transform="matrix(0.7,0,0,0.7,149.57575851890988,450.38037083218217)"><svg viewBox="0 0 396 57" data-background-color="#333333" preserveAspectRatio="xMidYMid meet" height="143" width="1000" xmlns="http://www.w3.org/2000/svg" xmlns:xlink="http://www.w3.org/1999/xlink"><defs></defs><g id="tight-bounds" transform="matrix(1,0,0,1,0.23999946644528336,-0.24506630803580265)"><svg viewBox="0 0 395.52 57.4901283971416" height="57.4901283971416" width="395.52"><g><svg viewBox="0 0 470.0260030853966 68.31982015416345" height="57.4901283971416" width="395.52"><g transform="matrix(1,0,0,1,0,9.442174854880768)"><svg viewBox="0 0 395.52 49.435470444401915" height="49.435470444401915" width="395.52"><g><svg viewBox="0 0 395.52 49.435470444401915" height="49.435470444401915" width="395.52"><g><svg viewBox="0 0 395.52 26.663130553656867" height="26.663130553656867" width="395.52"><g transform="matrix(1,0,0,1,0,0)"><svg width="395.52" viewBox="5.349999904632568 -38.599998474121094 585.1600341796875 39.44999694824219" height="26.663130553656867" data-palette-color="#7fc37e"><path d="M26.45 0L12.8-17.1 10.2-14.35 10.2 0 5.35 0 5.35-37.9 10.2-37.9 10.2-20.95 26.3-37.9 32.45-37.9 16.1-20.6 32.7 0 26.45 0ZM63.65-37.9L68.5-37.9 68.5 0 63.2 0 44.55-29.75 44.55 0 39.7 0 39.7-37.9 44.95-37.9 63.65-8.15 63.65-37.9ZM94.75 0.85Q88.89 0.85 84.82-1.73 80.75-4.3 78.69-8.78 76.64-13.25 76.64-18.9L76.64-18.9Q76.64-24.45 78.69-28.9 80.75-33.35 84.82-35.98 88.89-38.6 94.75-38.6L94.75-38.6Q100.55-38.6 104.59-35.98 108.65-33.35 110.72-28.88 112.8-24.4 112.8-18.9L112.8-18.9Q112.8-13.25 110.75-8.78 108.69-4.3 104.62-1.73 100.55 0.85 94.75 0.85L94.75 0.85ZM94.75-3.4Q98.84-3.4 101.8-5.45 104.75-7.5 106.27-11.05 107.8-14.6 107.8-19.05L107.8-19.05Q107.8-23.35 106.25-26.83 104.69-30.3 101.75-32.33 98.8-34.35 94.75-34.35L94.75-34.35Q90.55-34.35 87.59-32.3 84.64-30.25 83.14-26.75 81.64-23.25 81.64-18.9L81.64-18.9Q81.64-14.45 83.14-10.95 84.64-7.45 87.59-5.43 90.55-3.4 94.75-3.4L94.75-3.4ZM163.64-37.9L168.54-37.9 157.64 0.45 152.24 0.45 143.09-30.7 133.99 0.45 128.59 0.45 117.64-37.9 122.54-37.9 131.34-6.1 140.34-37.9 145.84-37.9 154.89-6.05 163.64-37.9ZM229.54-37.9L234.44-37.9 223.54 0.45 218.14 0.45 208.99-30.7 199.89 0.45 194.49 0.45 183.54-37.9 188.44-37.9 197.24-6.1 206.24-37.9 211.74-37.9 220.79-6.05 229.54-37.9ZM265.74-37.9L270.59-37.9 270.59 0 265.74 0 265.74-16.85 246.64-16.85 246.64 0 241.79 0 241.79-37.9 246.64-37.9 246.64-21.25 265.74-21.25 265.74-37.9ZM286.13-4.2L304.48-4.2 304.48 0 281.28 0 281.28-37.9 304.23-37.9 304.23-33.7 286.13-33.7 286.13-21.15 301.73-21.15 301.73-16.95 286.13-16.95 286.13-4.2ZM334.78 0L325.03-16.05 317.68-16.05 317.68 0 312.83 0 312.83-37.9 326.08-37.9Q338.48-37.9 338.48-26.9L338.48-26.9Q338.48-22.55 336.41-19.88 334.33-17.2 330.18-16.4L330.18-16.4 340.33 0 334.78 0ZM317.68-33.65L317.68-20.3 326.08-20.3Q333.48-20.3 333.53-26.9L333.53-26.9Q333.53-30.4 331.68-32.02 329.83-33.65 326.08-33.65L326.08-33.65 317.68-33.65ZM352.98-4.2L371.33-4.2 371.33 0 348.13 0 348.13-37.9 371.08-37.9 371.08-33.7 352.98-33.7 352.98-21.15 368.58-21.15 368.58-16.95 352.98-16.95 352.98-4.2ZM419.47-37.9L405.52-14.65 405.52 0 400.72 0 400.72-14.65 386.82-37.9 391.82-37.9 403.12-18.75 414.47-37.9 419.47-37.9ZM441.87 0.85Q436.02 0.85 431.95-1.73 427.87-4.3 425.82-8.78 423.77-13.25 423.77-18.9L423.77-18.9Q423.77-24.45 425.82-28.9 427.87-33.35 431.95-35.98 436.02-38.6 441.87-38.6L441.87-38.6Q447.67-38.6 451.72-35.98 455.77-33.35 457.85-28.88 459.92-24.4 459.92-18.9L459.92-18.9Q459.92-13.25 457.87-8.78 455.82-4.3 451.75-1.73 447.67 0.85 441.87 0.85L441.87 0.85ZM441.87-3.4Q445.97-3.4 448.92-5.45 451.87-7.5 453.4-11.05 454.92-14.6 454.92-19.05L454.92-19.05Q454.92-23.35 453.37-26.83 451.82-30.3 448.87-32.33 445.92-34.35 441.87-34.35L441.87-34.35Q437.67-34.35 434.72-32.3 431.77-30.25 430.27-26.75 428.77-23.25 428.77-18.9L428.77-18.9Q428.77-14.45 430.27-10.95 431.77-7.45 434.72-5.43 437.67-3.4 441.87-3.4L441.87-3.4ZM482.37 0.85Q475.12 0.85 471.52-2.83 467.92-6.5 467.92-13.25L467.92-13.25 467.92-37.9 472.82-37.9 472.82-13.25Q472.82-8.4 475.22-5.9 477.62-3.4 482.37-3.4L482.37-3.4Q487.12-3.4 489.52-5.9 491.92-8.4 491.92-13.25L491.92-13.25 491.92-37.9 496.82-37.9 496.82-13.25Q496.82-6.5 493.22-2.83 489.62 0.85 482.37 0.85L482.37 0.85ZM528.46-23.15L547.36-23.15 547.36-2.65Q544.41-0.95 540.89-0.05 537.36 0.85 534.31 0.85L534.31 0.85Q528.31 0.85 524.14-1.63 519.96-4.1 517.86-8.55 515.76-13 515.76-18.9L515.76-18.9Q515.76-24.5 517.79-28.95 519.81-33.4 523.99-36 528.16-38.6 534.31-38.6L534.31-38.6Q537.61-38.6 539.89-37.98 542.16-37.35 545.01-36.1L545.01-36.1 545.01-31.5Q542.46-32.9 539.99-33.63 537.51-34.35 534.31-34.35L534.31-34.35Q530.06-34.35 527.01-32.4 523.96-30.45 522.36-26.98 520.76-23.5 520.76-19.05L520.76-19.05Q520.76-14.4 522.34-10.88 523.91-7.35 526.96-5.38 530.01-3.4 534.31-3.4L534.31-3.4Q536.46-3.4 538.41-3.9 540.36-4.4 542.56-5.3L542.56-5.3 542.56-18.8 528.46-18.8 528.46-23.15ZM572.46 0.85Q566.61 0.85 562.54-1.73 558.46-4.3 556.41-8.78 554.36-13.25 554.36-18.9L554.36-18.9Q554.36-24.45 556.41-28.9 558.46-33.35 562.54-35.98 566.61-38.6 572.46-38.6L572.46-38.6Q578.26-38.6 582.31-35.98 586.36-33.35 588.44-28.88 590.51-24.4 590.51-18.9L590.51-18.9Q590.51-13.25 588.46-8.78 586.41-4.3 582.34-1.73 578.26 0.85 572.46 0.85L572.46 0.85ZM572.46-3.4Q576.56-3.4 579.51-5.45 582.46-7.5 583.99-11.05 585.51-14.6 585.51-19.05L585.51-19.05Q585.51-23.35 583.96-26.83 582.41-30.3 579.46-32.33 576.51-34.35 572.46-34.35L572.46-34.35Q568.26-34.35 565.31-32.3 562.36-30.25 560.86-26.75 559.36-23.25 559.36-18.9L559.36-18.9Q559.36-14.45 560.86-10.95 562.36-7.45 565.31-5.43 568.26-3.4 572.46-3.4L572.46-3.4Z" opacity="1" transform="matrix(1,0,0,1,0,0)" fill="#7fc37e" class="undefined-text-0" data-fill-palette-color="primary" id="text-0"></path></svg></g></svg></g><g transform="matrix(1,0,0,1,188.44545652464953,32.95765576224196)"><svg viewBox="0 0 207.07454347535045 16.477814682159945" height="16.477814682159945" width="207.07454347535045"><g transform="matrix(1,0,0,1,0,0)"><svg width="207.07454347535045" viewBox="2.200000047683716 -32.400001525878906 413.3999938964844 32.900001525878906" height="16.477814682159945" data-palette-color="#7fc37e"><path d="M18.5-6.95L18 0 2.2 0 2.2-31.05 10.75-31.05 10.75-6.95 18.5-6.95ZM19.2-12.08Q19.2-18.65 21.72-21.6 24.25-24.55 29.62-24.55 35-24.55 37.45-21.65 39.9-18.75 39.9-12.13 39.9-5.5 37.5-2.5 35.1 0.5 29.65 0.5 24.2 0.5 21.7-2.5 19.2-5.5 19.2-12.08ZM31.22-16.8Q30.9-17.8 29.6-17.8 28.3-17.8 27.95-16.8 27.6-15.8 27.6-12.6L27.6-12.6 27.6-11.4Q27.6-7.85 27.95-6.8 28.3-5.75 29.57-5.75 30.85-5.75 31.2-6.8 31.55-7.85 31.55-11.1L31.55-11.1 31.55-12.55Q31.55-15.8 31.22-16.8ZM52.97-17.25Q51.5-17.25 51-15.93 50.5-14.6 50.5-11.8 50.5-9 50.97-7.75 51.45-6.5 52.97-6.5 54.5-6.5 56.95-7.05L56.95-7.05 57.85-0.65Q54.4 0.5 51.7 0.5L51.7 0.5Q46.95 0.5 44.52-2.7 42.1-5.9 42.1-11.65 42.1-17.4 44.6-20.98 47.1-24.55 51.85-24.55L51.85-24.55Q55.4-24.55 58.25-23.35L58.25-23.35 57.35-16Q54.45-17.25 52.97-17.25ZM77.79-17.7L77.79-17.7 77.54-7.35Q77.54-6.4 78.02-6.08 78.49-5.75 79.64-5.75L79.64-5.75 78.89 0.3Q75.99 0.5 75.69 0.5L75.69 0.5Q71.99 0.5 70.99-2.05L70.99-2.05 70.74-2.05Q68.89 0.5 65.04 0.5L65.04 0.5Q62.09 0.5 60.52-1.4 58.94-3.3 58.94-6.6L58.94-6.6Q58.94-10.75 61.52-12.35 64.09-13.95 69.64-14.45L69.64-14.45 69.64-15.65Q69.64-17.05 68.24-17.05L68.24-17.05Q65.84-17.05 60.74-15.6L60.74-15.6 59.49-22.9Q65.89-24.55 70.14-24.55 74.39-24.55 76.09-22.9 77.79-21.25 77.79-17.7ZM68.14-5.35L68.14-5.35Q69.99-5.35 69.99-7.3L69.99-7.3 69.99-9.75Q68.14-9.5 67.37-8.97 66.59-8.45 66.59-7.2L66.59-7.2Q66.59-5.35 68.14-5.35ZM95.29-6.6L95.04 0.05Q91.34 0.5 88.62 0.5 85.89 0.5 84.37-0.93 82.84-2.35 82.84-5.85L82.84-5.85 82.84-17.45 80.44-17.45 80.44-23.65 83.24-23.65 83.69-28.25 91.24-28.25 91.24-23.65 95.69-23.65 95.34-17.45 91.19-17.45 91.19-7.5Q91.19-6.45 92.19-6.45L92.19-6.45Q92.29-6.45 95.29-6.6L95.29-6.6ZM105.84-23.7L105.84 0 97.59 0 97.59-23.7 105.84-23.7ZM98.24-25.6Q97.19-26.5 97.19-28.5 97.19-30.5 98.24-31.45 99.29-32.4 101.69-32.4 104.09-32.4 105.14-31.45 106.19-30.5 106.19-28.53 106.19-26.55 105.14-25.63 104.09-24.7 101.69-24.7 99.29-24.7 98.24-25.6ZM108.59-12.08Q108.59-18.65 111.11-21.6 113.64-24.55 119.01-24.55 124.39-24.55 126.84-21.65 129.29-18.75 129.29-12.13 129.29-5.5 126.89-2.5 124.49 0.5 119.04 0.5 113.59 0.5 111.09-2.5 108.59-5.5 108.59-12.08ZM120.61-16.8Q120.29-17.8 118.99-17.8 117.69-17.8 117.34-16.8 116.99-15.8 116.99-12.6L116.99-12.6 116.99-11.4Q116.99-7.85 117.34-6.8 117.69-5.75 118.96-5.75 120.24-5.75 120.59-6.8 120.94-7.85 120.94-11.1L120.94-11.1 120.94-12.55Q120.94-15.8 120.61-16.8ZM140.03-22.2L140.23-22.2Q142.98-24.55 146.28-24.55 149.58-24.55 150.91-23.03 152.23-21.5 152.23-18.45L152.23-18.45 152.23 0 143.73 0 143.73-15.6Q143.73-16.85 142.63-16.85L142.63-16.85Q141.23-16.85 140.28-16.15L140.28-16.15 140.28 0 131.88 0 131.88-23.95 139.53-23.95 140.03-22.2ZM188.28-8.95L188.28-8.95Q188.28 0 178.68 0L178.68 0 166.43 0 166.43-31.05 178.43-31.05Q183.18-31.05 185.48-29.13 187.78-27.2 187.78-23 187.78-18.8 184.33-16.6L184.33-16.6 184.33-16.3Q188.28-14.75 188.28-8.95ZM176.68-5.55Q178.18-5.55 178.7-6.23 179.23-6.9 179.23-9.03 179.23-11.15 178.68-12.03 178.13-12.9 176.68-12.9L176.68-12.9 175.08-12.9 175.08-5.55 176.68-5.55ZM176.73-17.75Q177.88-17.75 178.33-18.45 178.78-19.15 178.78-20.93 178.78-22.7 178.3-23.43 177.83-24.15 176.68-24.15L176.68-24.15 175.08-24.15 175.08-17.75 176.73-17.75ZM208.53-17.7L208.53-17.7 208.28-7.35Q208.28-6.4 208.75-6.08 209.23-5.75 210.38-5.75L210.38-5.75 209.63 0.3Q206.73 0.5 206.43 0.5L206.43 0.5Q202.73 0.5 201.73-2.05L201.73-2.05 201.48-2.05Q199.63 0.5 195.78 0.5L195.78 0.5Q192.83 0.5 191.25-1.4 189.68-3.3 189.68-6.6L189.68-6.6Q189.68-10.75 192.25-12.35 194.83-13.95 200.38-14.45L200.38-14.45 200.38-15.65Q200.38-17.05 198.98-17.05L198.98-17.05Q196.58-17.05 191.48-15.6L191.48-15.6 190.23-22.9Q196.63-24.55 200.88-24.55 205.13-24.55 206.83-22.9 208.53-21.25 208.53-17.7ZM198.88-5.35L198.88-5.35Q200.73-5.35 200.73-7.3L200.73-7.3 200.73-9.75Q198.88-9.5 198.1-8.97 197.33-8.45 197.33-7.2L197.33-7.2Q197.33-5.35 198.88-5.35ZM210.97-16.88Q210.97-20.5 213.2-22.53 215.42-24.55 219.32-24.55 223.22-24.55 227.22-23.55L227.22-23.55 226.37-16.6Q221.27-17.75 219.52-17.75L219.52-17.75Q218.47-17.75 218.47-16.9L218.47-16.9Q218.47-16.35 219.62-15.9L219.62-15.9Q223.62-14.45 225.65-12.6 227.67-10.75 227.67-7.05 227.67-3.35 225.77-1.43 223.87 0.5 219.95 0.5 216.02 0.5 212.12-0.5L212.12-0.5 212.67-7.25Q217.67-5.9 219.15-5.9 220.62-5.9 220.62-6.6 220.62-7.3 219.52-7.7L219.52-7.7Q215.07-9.4 213.02-11.33 210.97-13.25 210.97-16.88ZM239.37-17.4L239.37-17.4Q238.07-17.4 237.67-16.53 237.27-15.65 237.27-13.85L237.27-13.85 241.62-13.85 241.62-15.05Q241.62-17.4 239.37-17.4ZM239.57-24.55L239.57-24.55Q244.72-24.55 246.95-22.08 249.17-19.6 249.17-15L249.17-15Q249.17-14.4 248.82-9.6L248.82-9.6 237.42-9.6Q237.42-5.85 240.87-5.85L240.87-5.85Q242.52-5.85 247.32-7L247.32-7 248.02-0.8Q243.82 0.5 239.62 0.5L239.62 0.5Q234.47 0.5 231.72-2.88 228.97-6.25 228.97-12.05L228.97-12.05Q228.97-24.55 239.57-24.55ZM273.42-5.75L272.67 0.3 269.32 0.5Q265.47 0.5 264.62-2.05L264.62-2.05 264.37-2.05Q262.72 0.5 259.32 0.5L259.32 0.5Q254.82 0.5 252.99-2.65 251.17-5.8 251.17-12.03 251.17-18.25 253.22-21.4 255.27-24.55 259.12-24.55L259.12-24.55Q261.77-24.55 263.22-23.3L263.22-23.3 263.22-32.05 271.57-32.05 271.57-7.35Q271.57-6.4 271.97-6.08 272.37-5.75 273.42-5.75L273.42-5.75ZM261.34-17.5Q260.27-17.5 259.92-16.23 259.57-14.95 259.57-12.58 259.57-10.2 259.62-9.35 259.67-8.5 259.84-7.63 260.02-6.75 260.39-6.43 260.77-6.1 261.64-6.1 262.52-6.1 263.47-6.55L263.47-6.55 263.47-16.9Q262.42-17.5 261.34-17.5ZM285.11-21.7Q285.11-26.15 287.71-28.85 290.31-31.55 294.84-31.55 299.36-31.55 304.11-30.65L304.11-30.65 303.11-22.65Q298.16-23.8 296.31-23.8L296.31-23.8Q293.96-23.8 293.96-21.9L293.96-21.9Q293.96-21.15 295.09-20.45 296.21-19.75 297.81-18.98 299.41-18.2 301.01-17.13 302.61-16.05 303.74-14.05 304.86-12.05 304.86-9.45L304.86-9.45Q304.86-4.7 302.31-2.1 299.76 0.5 295.09 0.5 290.41 0.5 285.96-0.95L285.96-0.95 286.51-8.4Q291.86-6.85 293.96-6.85 296.06-6.85 296.06-8.7L296.06-8.7Q296.06-9.65 294.94-10.45 293.81-11.25 292.21-12.05 290.61-12.85 288.99-13.9 287.36-14.95 286.24-16.95 285.11-18.95 285.11-21.7L285.11-21.7ZM317.16-17.4L317.16-17.4Q315.86-17.4 315.46-16.53 315.06-15.65 315.06-13.85L315.06-13.85 319.41-13.85 319.41-15.05Q319.41-17.4 317.16-17.4ZM317.36-24.55L317.36-24.55Q322.51-24.55 324.74-22.08 326.96-19.6 326.96-15L326.96-15Q326.96-14.4 326.61-9.6L326.61-9.6 315.21-9.6Q315.21-5.85 318.66-5.85L318.66-5.85Q320.31-5.85 325.11-7L325.11-7 325.81-0.8Q321.61 0.5 317.41 0.5L317.41 0.5Q312.26 0.5 309.51-2.88 306.76-6.25 306.76-12.05L306.76-12.05Q306.76-24.55 317.36-24.55ZM337.56-13.45L337.56-13.45 337.56 0 329.26 0 329.26-23.95 336.56-23.95 337.06-22.5 337.26-22.5Q338.41-23.8 339.58-24.18 340.76-24.55 343.41-24.55L343.41-24.55 343.06-16.55 340.76-16.55Q338.81-16.55 338.18-15.95 337.56-15.35 337.56-13.45ZM357.31-23.95L365.46-23.95 360.36 0 348.56 0 343.41-23.95 352.21-23.95 354.36-8.6 355.01-8.6 357.31-23.95ZM375.4-23.7L375.4 0 367.15 0 367.15-23.7 375.4-23.7ZM367.8-25.6Q366.75-26.5 366.75-28.5 366.75-30.5 367.8-31.45 368.85-32.4 371.25-32.4 373.65-32.4 374.7-31.45 375.75-30.5 375.75-28.53 375.75-26.55 374.7-25.63 373.65-24.7 371.25-24.7 368.85-24.7 367.8-25.6ZM389.03-17.25Q387.55-17.25 387.05-15.93 386.55-14.6 386.55-11.8 386.55-9 387.03-7.75 387.5-6.5 389.03-6.5 390.55-6.5 393-7.05L393-7.05 393.9-0.65Q390.45 0.5 387.75 0.5L387.75 0.5Q383 0.5 380.58-2.7 378.15-5.9 378.15-11.65 378.15-17.4 380.65-20.98 383.15-24.55 387.9-24.55L387.9-24.55Q391.45-24.55 394.3-23.35L394.3-23.35 393.4-16Q390.5-17.25 389.03-17.25ZM405.8-17.4L405.8-17.4Q404.5-17.4 404.1-16.53 403.7-15.65 403.7-13.85L403.7-13.85 408.05-13.85 408.05-15.05Q408.05-17.4 405.8-17.4ZM406-24.55L406-24.55Q411.15-24.55 413.37-22.08 415.6-19.6 415.6-15L415.6-15Q415.6-14.4 415.25-9.6L415.25-9.6 403.85-9.6Q403.85-5.85 407.3-5.85L407.3-5.85Q408.95-5.85 413.75-7L413.75-7 414.45-0.8Q410.25 0.5 406.05 0.5L406.05 0.5Q400.9 0.5 398.15-2.88 395.4-6.25 395.4-12.05L395.4-12.05Q395.4-24.55 406-24.55Z" opacity="1" transform="matrix(1,0,0,1,0,0)" fill="#7fc37e" class="undefined-text-1" data-fill-palette-color="secondary" id="text-1"></path></svg></g></svg></g></svg></g></svg></g><g transform="matrix(1,0,0,1,401.81452520858505,0)"><svg viewBox="0 0 68.21147787681151 68.31982015416345" height="68.31982015416345" width="68.21147787681151"><g><svg xmlns="http://www.w3.org/2000/svg" xmlns:xlink="http://www.w3.org/1999/xlink" version="1.1" x="0" y="0" viewBox="0.1764693260192871 0 99.64672088623047 99.80499267578125" enable-background="new 0 0 100 100" xml:space="preserve" height="68.31982015416345" width="68.21147787681151" class="icon-icon-0" data-fill-palette-color="accent" id="icon-0"><path fill="#fefee2" d="M99.689 97.089L86.3 62.412c-0.198-0.514-0.601-0.923-1.11-1.13l-19.926-8.113c-0.453-0.185-0.957-0.196-1.418-0.035l-0.729 0.257c5.917-9.216 12.663-21.665 12.663-30.548C75.779 10.247 65.514 0 52.891 0c-12.622 0-22.89 10.247-22.89 22.842 0 10.884 10.205 27.113 16.58 36.192l-19.372-6.545c-0.729-0.246-1.541-0.052-2.078 0.502L0.74 78.125c-0.429 0.441-0.63 1.057-0.544 1.664 0.085 0.609 0.446 1.146 0.979 1.452l31.693 18.276c0.001 0 0.002 0 0.003 0l0.028 0.018c0.021 0.012 0.044 0.017 0.065 0.025 0.088 0.047 0.175 0.094 0.271 0.129 0.025 0.009 0.052 0.012 0.077 0.02 0.035 0.012 0.07 0.02 0.106 0.027 0.121 0.031 0.242 0.05 0.363 0.058 0.024 0.001 0.049 0.006 0.073 0.006 0.015 0 0.029 0.005 0.044 0.005 0.04 0 0.078-0.017 0.118-0.02 0.136-0.008 0.27-0.026 0.403-0.062 0.065-0.018 0.126-0.041 0.189-0.064 0.058-0.022 0.119-0.033 0.176-0.062l27.767-13.701c0.186 0.065 0.381 0.113 0.588 0.121 0.026 0.002 0.053 0.002 0.077 0.002 0.156 0 0.308-0.022 0.453-0.058l33.392 13.692c0.244 0.102 0.504 0.149 0.76 0.149 0.513 0 1.018-0.196 1.397-0.569C99.793 98.676 99.977 97.833 99.689 97.089zM48.098 43.14c0-2.719 2.25-5.016 4.919-5.016 2.726 0 5.026 2.297 5.026 5.016 0 2.664-2.302 4.914-5.026 4.914C50.348 48.054 48.098 45.804 48.098 43.14zM43.381 16.387c-0.418-0.367-0.366-0.992 0-1.358 0 0 3.877-4.6 10.633-4.6 5.547 0 10.682 3.868 10.682 9.145 0 6.895-7.854 7.104-7.854 12.748 0 0.576-0.473 0.994-0.997 0.994h-5.602c-0.525 0-0.993-0.417-0.993-0.994V30.13c0-4.393 7.228-6.324 7.228-9.667 0-1.622-1.678-3.084-3.929-3.084-3.666 0-4.66 3.294-5.97 2.144L43.381 16.387zM32.453 81.23c1.305 0.482 2.669 0.838 4.055 1.051 0.052 0.008 0.103 0.012 0.153 0.012 0.272 0 0.519-0.118 0.702-0.304l-4.548 12.887L5.396 79.064l12.361-12.738c0.289 0.646 0.694 1.494 1.24 2.48 0.183 0.33 0.523 0.516 0.876 0.516 0.163 0 0.329-0.04 0.482-0.124 0.483-0.267 0.659-0.874 0.392-1.356-0.771-1.395-1.253-2.509-1.48-3.07l7.856-8.097 17.13 5.788-6.616 18.748c-0.039-0.447-0.36-0.831-0.825-0.902-1.252-0.191-2.484-0.513-3.664-0.949-0.515-0.19-1.093 0.072-1.285 0.59C31.671 80.465 31.935 81.039 32.453 81.23zM61.803 68.641c-0.378 0.321-0.478 0.873-0.195 1.297 0.041 0.062 0.09 0.113 0.141 0.162l-0.456 11.965-23.87 11.779 10.961-31.058 0.716-0.251c1.366 1.852 2.288 3.025 2.458 3.242 0.344 0.435 0.869 0.688 1.424 0.688h0.004c0.558-0.002 1.082-0.257 1.425-0.693 0.262-0.334 2.299-2.951 5.013-6.856l2.791-0.979L61.803 68.641zM65.286 82.307l0.509-13.341c0.162-0.036 0.324-0.075 0.488-0.106 0.543-0.102 0.898-0.623 0.797-1.164-0.104-0.543-0.624-0.895-1.168-0.797-0.014 0.002-0.025 0.006-0.039 0.01l0.345-9.04 16.66 6.784L94.287 94.2 65.286 82.307z" data-fill-palette-color="accent"></path><path fill="#fefee2" d="M24.644 73.37c-0.368-0.41-1-0.446-1.412-0.08-0.412 0.367-0.448 0.997-0.08 1.41 0.945 1.056 1.952 2.022 2.992 2.874 0.187 0.15 0.41 0.226 0.633 0.226 0.29 0 0.577-0.124 0.774-0.364 0.351-0.428 0.287-1.057-0.14-1.404C26.451 75.244 25.52 74.352 24.644 73.37z" data-fill-palette-color="accent"></path><path fill="#fefee2" d="M46.831 78.032c-1.209 0.532-2.434 0.997-3.638 1.385-0.525 0.17-0.814 0.731-0.646 1.257 0.137 0.424 0.529 0.691 0.952 0.691 0.102 0 0.205-0.016 0.307-0.049 1.27-0.407 2.559-0.898 3.831-1.459 0.505-0.222 0.734-0.811 0.512-1.314C47.927 78.04 47.338 77.809 46.831 78.032z" data-fill-palette-color="accent"></path><path fill="#fefee2" d="M77.242 68.311c-1.316-0.569-2.656-1.006-3.982-1.293-0.535-0.117-1.07 0.225-1.189 0.764-0.116 0.537 0.227 1.07 0.767 1.188 1.198 0.26 2.412 0.654 3.608 1.174 0.131 0.057 0.266 0.082 0.397 0.082 0.388 0 0.755-0.225 0.918-0.601C77.98 69.117 77.748 68.529 77.242 68.311z" data-fill-palette-color="accent"></path><path fill="#fefee2" d="M56.164 72.627c-1.184 0.826-2.258 1.539-3.288 2.18-0.469 0.291-0.61 0.907-0.319 1.375 0.189 0.303 0.517 0.471 0.851 0.471 0.181 0 0.362-0.049 0.528-0.151 1.06-0.66 2.164-1.394 3.375-2.237 0.453-0.315 0.562-0.938 0.246-1.391C57.24 72.42 56.617 72.311 56.164 72.627z" data-fill-palette-color="accent"></path><path fill="#fefee2" d="M82.02 72.227c-0.34 0.435-0.265 1.061 0.172 1.4 0.977 0.764 1.961 1.622 2.928 2.559 0.193 0.187 0.443 0.279 0.695 0.279 0.261 0 0.521-0.102 0.719-0.304 0.384-0.396 0.374-1.027-0.023-1.411-1.016-0.98-2.054-1.889-3.086-2.693C82.988 71.716 82.359 71.792 82.02 72.227z" data-fill-palette-color="accent"></path></svg></g></svg></g></svg></g></svg><rect width="395.52" height="57.4901283971416" fill="none" stroke="none" visibility="hidden"></rect></g></svg></g></svg>